<?xml version="1.0" standalone="no"?>
<!DOCTYPE svg PUBLIC "-//W3C//DTD SVG 1.1//EN" "http://www.w3.org/Graphics/SVG/1.1/DTD/svg11.dtd" >
<svg>
<metadata>
Created by FontForge 20120731 at Thu Mar 24 17:57:09 2016
 By www
Copyright (c) 2010 by Tipografiaramis. All rights reserved.
</metadata>
<defs>
<font id="UltimaW01-Light" horiz-adv-x="605" >
  <font-face 
    font-family="UltimaW01-Light"
    font-weight="300"
    font-stretch="normal"
    units-per-em="1000"
    panose-1="2 0 5 3 0 0 0 2 0 4"
    ascent="750"
    descent="-250"
    x-height="500"
    cap-height="705"
    bbox="-145 -250 1137 943"
    underline-thickness="50"
    underline-position="-100"
    unicode-range="U+0002-2122"
  />
<missing-glyph horiz-adv-x="300" 
 />
    <glyph glyph-name=".notdef" horiz-adv-x="300" 
 />
    <glyph glyph-name=".null" horiz-adv-x="0" 
 />
    <glyph glyph-name="uni000D" unicode="&#xd;" horiz-adv-x="300" 
 />
    <glyph glyph-name="uni0002" horiz-adv-x="0" 
 />
    <glyph glyph-name="uni0009" unicode="&#x9;" horiz-adv-x="300" 
 />
    <glyph glyph-name="uni000A" unicode="&#xa;" horiz-adv-x="0" 
 />
    <glyph glyph-name="space" unicode=" " horiz-adv-x="300" 
 />
    <glyph glyph-name="exclam" unicode="!" horiz-adv-x="254" 
d="M80 42q0 20 13.5 33.5t33.5 13.5t33.5 -13.5t13.5 -33.5t-13.5 -33.5t-33.5 -13.5t-33.5 13.5t-13.5 33.5zM96 674q0 12 9 21.5t22 9.5q14 0 23 -9.5t9 -21.5v-448q0 -12 -9 -22t-23 -10q-13 0 -22 10t-9 22v448z" />
    <glyph glyph-name="quotedbl" unicode="&#x22;" horiz-adv-x="442" 
d="M187 705q13 0 22.5 -8.5t9.5 -22.5q0 -7 -5 -17l-105 -181q-4 -7 -11.5 -11t-15.5 -4q-14 0 -23 9t-9 21q0 7 4 15l104 183q9 16 29 16zM361 705q12 0 21.5 -8.5t9.5 -22.5q0 -10 -4 -17l-105 -181q-4 -7 -12 -11t-16 -4q-14 0 -22.5 9t-8.5 21q0 9 3 15l104 183
q5 8 13 12t17 4z" />
    <glyph glyph-name="numbersign" unicode="#" horiz-adv-x="664" 
d="M209 484l26 185q2 11 10 18t20 7q13 0 21.5 -8t8.5 -22q0 -1 -0.5 -4t-1.5 -8l-25 -168h168l27 185q2 11 10 18t20 7t19.5 -8t7.5 -22v-3t-1 -8l-27 -169h96q11 0 18.5 -7.5t7.5 -16.5q0 -12 -7.5 -19.5t-18.5 -7.5h-102l-24 -180h94q11 0 19 -7.5t8 -18.5t-8 -18t-19 -7
h-102l-26 -182q-2 -10 -10 -17.5t-19 -7.5q-13 0 -21 8.5t-8 19.5q0 2 0.5 6.5t1.5 9.5l24 163h-168l-25 -182q-2 -10 -10.5 -17.5t-19.5 -7.5q-13 0 -21.5 8.5t-8.5 19.5q0 2 0.5 6.5t1.5 9.5l23 163h-92q-11 0 -18.5 7t-7.5 18t7.5 18.5t18.5 7.5h100l24 180h-92
q-12 0 -20 7.5t-8 19.5q0 9 8 16.5t20 7.5h101zM237 253h167l25 180h-168z" />
    <glyph glyph-name="dollar" unicode="$" horiz-adv-x="560" 
d="M304 700h131q14 0 23.5 -7t9.5 -19q0 -13 -9.5 -19.5t-23.5 -6.5h-195q-29 0 -52 -9.5t-39 -25.5t-24.5 -37t-8.5 -43q0 -36 16.5 -60t43.5 -41.5t61.5 -30.5t70.5 -26t70.5 -28.5t61.5 -38t43.5 -55t16.5 -78.5q0 -35 -14.5 -66.5t-40 -55.5t-60 -38.5t-74.5 -14.5h-7
v-71q0 -11 -8 -18.5t-19 -7.5t-18.5 7.5t-7.5 18.5v71h-158q-14 0 -23.5 7t-9.5 19q0 13 9.5 19.5t23.5 6.5h218q28 0 52 9.5t41 26.5t26.5 40t9.5 50q0 49 -28 77.5t-70.5 47.5t-91.5 34.5t-91.5 38t-70.5 58t-28 94.5q0 38 15 70t39.5 54.5t57 35t68.5 12.5h11v71
q0 9 7.5 16.5t18.5 7.5t19 -7.5t8 -16.5v-71z" />
    <glyph glyph-name="percent" unicode="%" horiz-adv-x="708" 
d="M539 692q8 13 23 13q9 0 15.5 -7t6.5 -16q0 -6 -3 -11t-5 -9l-407 -653q-9 -14 -23 -14q-9 0 -16 6.5t-7 15.5q0 6 3 11t5 9zM371 133q0 29 11 54.5t29.5 44t44 29.5t54.5 11q28 0 53.5 -11t44 -29.5t29.5 -44t11 -54.5t-11 -54t-29.5 -43.5t-44 -29.5t-53.5 -11
q-29 0 -54.5 11t-44 29.5t-29.5 43.5t-11 54zM412 133q0 -20 7.5 -37.5t21 -31t31.5 -21t38 -7.5t37.5 7.5t31 21t21 31t7.5 37.5t-7.5 38t-21 31.5t-31 21t-37.5 7.5q-41 0 -69.5 -28.5t-28.5 -69.5zM60 567q0 29 11 54t29.5 44t43.5 29.5t54 10.5t54.5 -10.5t44 -29.5
t29.5 -44t11 -54t-11 -54t-29.5 -44t-44 -29.5t-54.5 -10.5t-54 10.5t-43.5 29.5t-29.5 44t-11 54zM101 567q0 -20 7.5 -38t21 -31.5t31 -21t37.5 -7.5q41 0 69.5 28.5t28.5 69.5t-28.5 69.5t-69.5 28.5q-20 0 -37.5 -7.5t-31 -21t-21 -31.5t-7.5 -38z" />
    <glyph glyph-name="ampersand" unicode="&#x26;" horiz-adv-x="619" 
d="M282 655q-27 0 -51 -9.5t-41.5 -25.5t-27.5 -37.5t-10 -46.5q0 -42 28 -74.5t72 -40.5q25 -5 25 -24q0 -11 -7 -17.5t-22 -7.5q-26 -2 -51 -14t-44.5 -33t-32 -49.5t-12.5 -63.5q0 -29 11 -59t33 -54t54 -39.5t74 -15.5q32 0 62.5 11t54.5 35t38.5 60.5t14.5 87.5h-33
q-13 0 -19.5 8t-6.5 17t6.5 17t19.5 8h156q12 0 19 -7.5t7 -17.5q0 -11 -7 -18t-19 -7h-65q0 -62 -20 -107.5t-52.5 -75.5t-73 -45t-82.5 -15q-51 0 -93.5 18t-73 48.5t-47 69.5t-16.5 81q0 65 34 114.5t84 75.5q-23 17 -37.5 36t-22 37t-10 33.5t-2.5 26.5q0 32 13 62.5
t37.5 54.5t59.5 38.5t78 14.5q39 0 69.5 -12t51.5 -28t32 -32.5t11 -25.5t-6.5 -16t-17.5 -7q-8 0 -14.5 4.5t-11.5 9.5q-20 23 -46 40t-70 17z" />
    <glyph glyph-name="quotesingle" unicode="'" horiz-adv-x="269" 
d="M187 705q13 0 22.5 -8.5t9.5 -22.5q0 -7 -5 -17l-105 -181q-4 -7 -11.5 -11t-15.5 -4q-14 0 -23 9t-9 21q0 7 4 15l104 183q9 16 29 16z" />
    <glyph glyph-name="parenleft" unicode="(" horiz-adv-x="302" 
d="M252 -115q0 -11 -8.5 -19.5t-19.5 -8.5q-16 0 -25 14q-56 92 -87.5 200t-31.5 221t30.5 219.5t87.5 200.5q4 6 10.5 10.5t15.5 4.5q11 0 19.5 -8.5t8.5 -19.5q0 -3 -1.5 -8t-3.5 -9q-48 -86 -76.5 -185t-28.5 -205q0 -102 30 -202t76 -189q4 -8 4 -16z" />
    <glyph glyph-name="parenright" unicode=")" horiz-adv-x="302" 
d="M50 -115q0 8 4 16q46 89 76 189t30 202q0 106 -28.5 205t-76.5 185q-2 4 -3.5 9t-1.5 8q0 11 8.5 19.5t19.5 8.5q9 0 15.5 -4.5t10.5 -10.5q57 -94 87.5 -200.5t30.5 -219.5t-31.5 -221t-87.5 -200q-9 -14 -25 -14q-11 0 -19.5 8.5t-8.5 19.5z" />
    <glyph glyph-name="asterisk" unicode="*" horiz-adv-x="445" 
d="M198 560v121q0 10 7.5 17t17.5 7q11 0 18 -7t7 -17v-121l115 37q2 0 3.5 0.5t3.5 0.5q10 0 17.5 -8t7.5 -19q0 -7 -4 -13.5t-12 -8.5l-117 -37l72 -99q4 -8 4 -13q0 -11 -7.5 -19t-18.5 -8q-12 0 -19 10l-71 99l-71 -98q-6 -9 -19 -9q-11 0 -19 7.5t-8 17.5q0 7 5 14
l71 98l-115 38q-8 2 -12 9t-4 15q0 11 7.5 17.5t16.5 6.5q5 0 8 -1z" />
    <glyph glyph-name="plus" unicode="+" horiz-adv-x="562" 
d="M306 276h172q10 0 17 -7.5t7 -17.5q0 -11 -7 -18t-17 -7h-172v-170q0 -11 -7 -18.5t-18 -7.5q-10 0 -17.5 7.5t-7.5 18.5v170h-170q-11 0 -18.5 7t-7.5 18q0 10 7.5 17.5t18.5 7.5h170v172q0 10 7.5 17t17.5 7q11 0 18 -7t7 -17v-172z" />
    <glyph glyph-name="comma" unicode="," horiz-adv-x="224" 
d="M60 42q0 20 14 33.5t34 13.5q8 0 18 -3.5t18.5 -12.5t14 -26t5.5 -44q0 -33 -10.5 -61.5t-25.5 -48.5t-31.5 -31.5t-28.5 -11.5q-11 0 -18 6.5t-7 15.5q0 14 18 25q26 16 36.5 41t10.5 54q-25 3 -36.5 18t-11.5 32z" />
    <glyph glyph-name="hyphen" unicode="-" horiz-adv-x="405" 
d="M86 227q-11 0 -18.5 7t-7.5 18q0 10 7.5 17.5t18.5 7.5h235q10 0 17 -7.5t7 -17.5q0 -11 -7 -18t-17 -7h-235z" />
    <glyph glyph-name="period" unicode="." horiz-adv-x="214" 
d="M60 42q0 20 13.5 33.5t33.5 13.5t33.5 -13.5t13.5 -33.5t-13.5 -33.5t-33.5 -13.5t-33.5 13.5t-13.5 33.5z" />
    <glyph glyph-name="slash" unicode="/" horiz-adv-x="302" 
d="M57 14q-3 -9 -11 -14t-18 -5q-12 0 -20 8.5t-8 19.5q0 6 2 12l242 648q3 8 9 15t21 7q13 0 20.5 -8.5t7.5 -20.5q0 -3 -0.5 -7.5t-2.5 -8.5z" />
    <glyph glyph-name="zero" unicode="0" horiz-adv-x="608" 
d="M304 -5q-50 0 -93.5 18.5t-75.5 50t-51 74.5t-19 92v240q0 49 19 92t51 74.5t75.5 50t93.5 18.5t93.5 -18.5t76 -50t51 -74.5t18.5 -92v-240q0 -49 -18.5 -92t-51 -74.5t-76 -50t-93.5 -18.5zM124 230q0 -38 13 -72t37 -59.5t57 -40.5t73 -15t73 15t57 40.5t37.5 59.5
t13.5 72v240q0 38 -13.5 72.5t-37.5 60t-57 40.5t-73 15t-73 -15t-57 -40.5t-37 -60t-13 -72.5v-240z" />
    <glyph glyph-name="one" unicode="1" horiz-adv-x="283" 
d="M198 25q0 -12 -9 -21t-20 -9q-12 0 -21 9t-9 21v627h-84q-11 0 -18 6.5t-7 17.5t7 17.5t18 6.5h114q11 0 20 -8.5t9 -20.5v-646z" />
    <glyph glyph-name="two" unicode="2" horiz-adv-x="512" 
d="M322 355q12 12 25.5 27.5t25 35t19.5 42.5t8 50q0 29 -11 56t-30.5 47.5t-47 32.5t-59.5 12q-33 0 -59 -13t-44.5 -33.5t-29 -45.5t-12.5 -48q-1 -9 -9 -16t-18 -7q-12 0 -19.5 8.5t-7.5 18.5q0 16 10 47t33.5 61t62.5 52.5t96 22.5q47 0 84.5 -17.5t64 -45.5t40.5 -63.5
t14 -71.5q0 -30 -7.5 -55t-19.5 -46t-26.5 -38.5t-27.5 -31.5l-270 -286h358q12 0 19.5 -7t7.5 -18t-7 -18t-20 -7h-368q-22 0 -34.5 13t-12.5 29q0 11 3.5 19.5t14.5 20.5z" />
    <glyph glyph-name="three" unicode="3" horiz-adv-x="533" 
d="M251 705q45 0 81 -16t61.5 -42t39 -58t13.5 -63q0 -49 -25 -89t-73 -66q67 -25 101 -75t34 -103q0 -41 -17 -77t-47 -63t-70.5 -42.5t-88.5 -15.5q-57 0 -99.5 18t-70 43t-41.5 52t-14 44q0 12 7.5 20t18.5 8t18 -6.5t10 -14.5q7 -21 20.5 -41.5t35 -37t50.5 -26.5
t66 -10q33 0 62.5 11t51 31t34.5 48t13 63q0 32 -14.5 58.5t-37.5 46t-53.5 30t-61.5 10.5q-11 0 -20.5 6t-9.5 19q0 11 8.5 17.5t18.5 6.5q27 0 51.5 10t43.5 28t30.5 42t11.5 53q0 27 -11 51t-29.5 42.5t-44 29.5t-53.5 11q-31 0 -55 -9.5t-41 -24.5t-28.5 -33t-17.5 -35
q-2 -7 -9 -12t-15 -5q-13 0 -19 8.5t-6 16.5q0 14 11.5 37.5t34.5 46.5t59 40t86 17z" />
    <glyph glyph-name="four" unicode="4" horiz-adv-x="548" 
d="M426 186v-162q0 -11 -9 -20t-21 -9q-11 0 -20 9t-9 20v162h-300q-21 0 -34 13t-13 29q0 20 13 39l282 414q5 7 12.5 13t15.5 6h54q12 0 20.5 -8t8.5 -19v-440h79q10 0 16.5 -7.5t6.5 -16.5q0 -10 -6.5 -16.5t-16.5 -6.5h-79zM367 233v420h-10l-284 -420h294z" />
    <glyph glyph-name="five" unicode="5" horiz-adv-x="507" 
d="M220 45q40 0 73 14.5t56.5 39t36.5 58t13 72.5t-14.5 70.5t-39 54t-56 35t-65.5 12.5q-25 0 -44.5 -4t-35 -9t-28 -9t-23.5 -4q-16 0 -23 10t-7 21v3q0 5 1 9l30 249q2 13 9.5 23t20.5 10h276q11 0 18.5 -7t7.5 -17q0 -12 -7.5 -19t-18.5 -7h-251l-27 -219q12 5 28 9
q14 4 33.5 7t44.5 3q48 0 89.5 -17t72.5 -46.5t49 -70t18 -87.5q0 -50 -18.5 -93t-50.5 -74.5t-75 -49t-93 -17.5q-33 0 -60 6.5t-48 16.5t-36.5 20.5t-24.5 19.5q-11 9 -11 23q0 12 8 20t20 8q8 0 14.5 -4t11.5 -9q16 -16 49.5 -33.5t76.5 -17.5z" />
    <glyph glyph-name="six" unicode="6" horiz-adv-x="551" 
d="M281 -5q-45 0 -87 17t-74 49.5t-51 80t-19 108.5q0 75 17.5 138.5t46 114t64 88.5t71 63.5t67 38t52.5 12.5q13 0 21 -8t8 -19t-7 -17t-15 -8q-39 -11 -77 -34t-71 -56.5t-59 -77.5t-41 -96q26 28 68 45.5t90 17.5q52 0 93.5 -19.5t71 -51.5t45.5 -72t16 -80
q0 -49 -18 -92t-49.5 -74.5t-73 -49.5t-89.5 -18zM283 400q-37 0 -68.5 -13t-55 -36t-36.5 -54.5t-13 -67.5q0 -40 13.5 -74t37 -58.5t55 -38t67.5 -13.5q35 0 66 13.5t54.5 37.5t37 57t13.5 72q0 36 -13 67.5t-36.5 55.5t-54.5 38t-67 14z" />
    <glyph glyph-name="seven" unicode="7" horiz-adv-x="454" 
d="M150 16q-10 -21 -29 -21q-14 0 -21.5 9.5t-7.5 20.5q0 6 2 12l276 613h-355q-11 0 -18 7.5t-7 18.5q0 9 7 16.5t18 7.5h380q20 0 29.5 -11.5t9.5 -23.5t-3.5 -22t-6.5 -17z" />
    <glyph glyph-name="eight" unicode="8" horiz-adv-x="562" 
d="M281 343q-34 0 -65 -10.5t-54 -29.5t-37 -46.5t-14 -61.5q0 -29 11 -56.5t32.5 -48.5t53 -33.5t73.5 -12.5t73.5 12.5t53 33.5t32.5 48.5t11 56.5q0 34 -14 61.5t-37 46.5t-54 29.5t-65 10.5zM281 -5q-53 0 -95.5 16t-72.5 43.5t-46.5 63t-16.5 74.5q0 51 28.5 100.5
t97.5 81.5q-17 10 -33.5 25t-29.5 34.5t-21 43.5t-8 52q0 31 13.5 62.5t39 57t62 41t82.5 15.5t82.5 -15.5t62 -41t39 -57t13.5 -62.5q0 -28 -8 -52t-21 -43.5t-29.5 -34.5t-33.5 -25q69 -32 97.5 -81.5t28.5 -100.5q0 -39 -16.5 -74.5t-46.5 -63t-72.5 -43.5t-95.5 -16z
M281 658q-28 0 -53.5 -9.5t-45 -27t-31 -42.5t-11.5 -55q0 -29 11 -53t30.5 -41.5t45 -27t54.5 -9.5t54.5 9.5t45 27t30.5 41.5t11 53q0 30 -11.5 55t-31 42.5t-45 27t-53.5 9.5z" />
    <glyph glyph-name="nine" unicode="9" horiz-adv-x="551" 
d="M270 705q45 0 87 -17t74 -49.5t51 -80t19 -108.5q0 -75 -17.5 -138.5t-46 -114t-64 -88.5t-71 -63.5t-67 -38t-52.5 -12.5q-13 0 -21 8t-8 19t7 17t15 8q39 11 77 34t71 56.5t59 77t41 96.5q-26 -28 -68 -45.5t-90 -17.5q-52 0 -93.5 19.5t-71 51.5t-45.5 71.5t-16 80.5
q0 49 18 92t49.5 74.5t73 49.5t89.5 18zM268 300q37 0 68.5 13t54.5 36t36.5 54.5t13.5 67.5q0 40 -13.5 74t-37 58.5t-55 38t-67.5 13.5q-35 0 -66.5 -13.5t-54.5 -37.5t-36.5 -57t-13.5 -72q0 -36 13 -67.5t36.5 -55.5t54.5 -38t67 -14z" />
    <glyph glyph-name="colon" unicode=":" horiz-adv-x="213" 
d="M60 42q0 20 13.5 33.5t33.5 13.5t33.5 -13.5t13.5 -33.5t-13.5 -33.5t-33.5 -13.5t-33.5 13.5t-13.5 33.5zM60 458q0 20 13.5 33.5t33.5 13.5t33.5 -13.5t13.5 -33.5t-13.5 -33.5t-33.5 -13.5t-33.5 13.5t-13.5 33.5z" />
    <glyph glyph-name="semicolon" unicode=";" horiz-adv-x="224" 
d="M60 42q0 20 14 33.5t34 13.5q8 0 18 -3.5t18.5 -12.5t14 -26t5.5 -44q0 -33 -10.5 -61.5t-25.5 -48.5t-31.5 -31.5t-28.5 -11.5q-11 0 -18 6.5t-7 15.5q0 14 18 25q26 16 36.5 41t10.5 54q-25 3 -36.5 18t-11.5 32zM60 458q0 20 13.5 33.5t33.5 13.5t33.5 -13.5
t13.5 -33.5t-13.5 -33.5t-33.5 -13.5t-33.5 13.5t-13.5 33.5z" />
    <glyph glyph-name="less" unicode="&#x3c;" horiz-adv-x="562" 
d="M128 250l359 -182q15 -8 15 -23q0 -12 -7.5 -19.5t-18.5 -7.5q-7 0 -15 4l-382 198q-8 4 -13.5 12t-5.5 18q0 9 5 17.5t13 12.5l385 199q2 1 6 2t7 1q11 0 18.5 -7t7.5 -19q0 -7 -3.5 -13.5t-11.5 -10.5z" />
    <glyph glyph-name="equal" unicode="=" horiz-adv-x="562" 
d="M86 125q-11 0 -18.5 7t-7.5 18q0 10 7.5 17.5t18.5 7.5h392q10 0 17 -7.5t7 -17.5q0 -11 -7 -18t-17 -7h-392zM86 325q-11 0 -18.5 7t-7.5 18q0 10 7.5 17.5t18.5 7.5h392q10 0 17 -7.5t7 -17.5q0 -11 -7 -18t-17 -7h-392z" />
    <glyph glyph-name="greater" unicode="&#x3e;" horiz-adv-x="562" 
d="M75 432q-8 4 -11.5 10.5t-3.5 13.5q0 12 7.5 19t18.5 7q3 0 7 -1t6 -2l385 -199q8 -4 13 -12.5t5 -17.5q0 -10 -5.5 -18t-13.5 -12l-382 -198q-8 -4 -15 -4q-11 0 -18.5 7.5t-7.5 19.5q0 15 15 23l359 182z" />
    <glyph glyph-name="question" unicode="?" horiz-adv-x="484" 
d="M239 705q39 0 73 -14t59 -38t39 -55.5t14 -65.5q0 -35 -12 -61.5t-30.5 -49.5t-39.5 -43.5t-39.5 -42.5t-30.5 -47.5t-12 -58.5q0 -14 -9 -24.5t-23 -10.5t-22.5 10.5t-8.5 23.5q0 36 12.5 64.5t31 52.5t40 45t40 43t31 46.5t12.5 54.5q0 24 -10 46t-27 38.5t-40 26.5
t-49 10q-29 0 -50.5 -9.5t-36.5 -24t-24 -31.5t-12 -32q-2 -11 -10 -18t-19 -7q-13 0 -19.5 10t-6.5 18q0 18 11 43t33.5 47.5t56 38t78.5 15.5zM181 42q0 20 13.5 33.5t33.5 13.5t33.5 -13.5t13.5 -33.5t-13.5 -33.5t-33.5 -13.5t-33.5 13.5t-13.5 33.5z" />
    <glyph glyph-name="at" unicode="@" horiz-adv-x="954" 
d="M616 80q-13 0 -26.5 11.5t-13.5 47.5q-22 -21 -43.5 -34t-41.5 -19.5t-38.5 -8.5t-34.5 -2q-32 0 -60 12t-48 34t-31.5 52t-11.5 66q0 43 17 85t47 75t70 53t87 20q35 0 72 -17t59 -54l7 46q2 9 11 17t23 8q12 0 20.5 -6.5t8.5 -16.5v-5.5t-1 -8.5q-2 -16 -5.5 -38
t-7 -47t-7.5 -51t-7 -51q-9 -59 -17 -122q41 2 77.5 18.5t63.5 44.5t42.5 66.5t15.5 85.5q0 74 -31.5 132t-82 97.5t-113 60.5t-124.5 21q-79 0 -148 -30t-120.5 -82t-81.5 -121t-30 -148q0 -80 30 -149t81.5 -121t120.5 -81.5t148 -29.5q70 0 130 22.5t110 62.5q8 7 13.5 9
t10.5 2q10 0 17.5 -6.5t7.5 -17.5q0 -13 -11 -23q-58 -47 -127.5 -73.5t-150.5 -26.5q-90 0 -169 34t-137.5 92.5t-92 137t-33.5 168.5q0 89 33.5 168t92 137.5t137.5 92.5t169 34q73 0 145 -25t129 -72t92.5 -114t35.5 -151q0 -64 -23 -112.5t-59 -81.5t-81 -50t-89 -17
h-26zM491 421q-33 0 -62.5 -14t-52 -38.5t-36 -57.5t-13.5 -71q0 -55 29.5 -86t78.5 -31q36 0 68 14t56 37.5t38.5 55.5t14.5 68q0 59 -34 91t-87 32z" />
    <glyph glyph-name="A" unicode="A" horiz-adv-x="672" 
d="M630 53q5 -15 6 -21t1 -7q0 -12 -8 -21t-21 -9q-14 0 -21 8t-10 18l-68 183h-347l-67 -183q-4 -11 -10.5 -18.5t-20.5 -7.5q-13 0 -21 9t-8 21q0 2 1 7.5t5 16.5l230 624q4 11 12 19t18 8h69q10 0 18.5 -7t11.5 -17zM490 256l-144 395h-20l-145 -395h309z" />
    <glyph glyph-name="B" unicode="B" horiz-adv-x="627" 
d="M354 700q49 0 85.5 -15t61.5 -39.5t37.5 -56t12.5 -64.5q0 -21 -5.5 -44t-16.5 -44.5t-27 -40t-38 -29.5q26 -10 47 -27t35.5 -39.5t22.5 -48.5t8 -53q0 -41 -14 -77.5t-42 -63.5t-68.5 -42.5t-93.5 -15.5h-252q-11 0 -19 8.5t-8 19.5v643q0 12 7.5 20.5t19.5 8.5h247z
M140 649v-262h215q63 0 100.5 36.5t37.5 96.5t-39.5 94.5t-105.5 34.5h-208zM140 336v-285h209q80 0 124.5 39.5t44.5 105.5t-46 103t-123 37h-209z" />
    <glyph glyph-name="C" unicode="C" horiz-adv-x="648" 
d="M50 350q0 72 27.5 136t74.5 113t111 77.5t137 28.5q95 0 176 -48q13 -8 13 -23q0 -11 -7.5 -19t-18.5 -8q-9 0 -15 4q-32 20 -69 32t-79 12q-63 0 -116 -24.5t-91.5 -66t-60.5 -97t-22 -117.5q0 -63 22 -119t60.5 -97t91.5 -65t116 -24q50 0 91 15.5t75 39.5q8 5 17 5
q11 0 18 -7.5t7 -18.5q0 -10 -4.5 -15t-11.5 -10q-45 -31 -95 -45t-97 -14q-73 0 -137 28.5t-111 77t-74.5 113t-27.5 136.5z" />
    <glyph glyph-name="D" unicode="D" horiz-adv-x="674" 
d="M287 700q74 0 136.5 -27t108.5 -74.5t71.5 -110.5t25.5 -135t-25.5 -136t-71.5 -112.5t-108.5 -76.5t-136.5 -28h-181q-11 0 -18.5 8t-7.5 20v644q0 12 7.5 20t18.5 8h181zM140 648v-596h147q63 0 115 24.5t89.5 66t58 96t20.5 114.5t-20.5 114t-58 94t-89.5 63.5
t-115 23.5h-147z" />
    <glyph glyph-name="E" unicode="E" horiz-adv-x="596" 
d="M519 52q12 0 19.5 -7.5t7.5 -18.5q0 -10 -7.5 -18t-19.5 -8h-410q-12 0 -20.5 8.5t-8.5 21.5v642q0 12 8.5 20t20.5 8h410q12 0 19.5 -8t7.5 -18q0 -11 -7.5 -18.5t-19.5 -7.5h-379v-260h319q11 0 18 -7.5t7 -17.5q0 -11 -7 -19t-18 -8h-319v-284h379z" />
    <glyph glyph-name="F" unicode="F" horiz-adv-x="537" 
d="M437 380q11 0 18.5 -7.5t7.5 -18.5q0 -10 -7.5 -18t-18.5 -8h-297v-303q0 -12 -9 -21t-21 -9q-13 0 -21.5 9t-8.5 21v647q0 12 7.5 20t20.5 8h384q11 0 18 -7.5t7 -16.5q0 -11 -7 -19.5t-18 -8.5h-352v-268h297z" />
    <glyph glyph-name="G" unicode="G" horiz-adv-x="730" 
d="M50 350q0 72 27.5 136t74.5 113t111 77.5t137 28.5q60 0 116 -19.5t99 -57.5q9 -7 9 -20q0 -11 -7.5 -18.5t-18.5 -7.5t-16 4l-15 12q-32 23 -71 40t-96 17q-63 0 -116 -24.5t-91.5 -66t-60.5 -97t-22 -117.5q0 -63 21.5 -119t59.5 -97t89.5 -65t111.5 -24t111 16t98 51
v202h-207q-13 0 -21.5 8t-8.5 20q0 10 8.5 17.5t21.5 7.5h237q12 0 20.5 -8.5t8.5 -20.5v-229q0 -9 -4.5 -17t-9.5 -12q-54 -41 -115 -63t-139 -22q-70 0 -132.5 28.5t-109 77t-73.5 113t-27 136.5z" />
    <glyph glyph-name="H" unicode="H" horiz-adv-x="737" 
d="M627 705q12 0 21 -8.5t9 -21.5v-651q0 -12 -9 -20.5t-21 -8.5t-21.5 8.5t-9.5 20.5v311h-455v-311q0 -12 -9.5 -20.5t-21.5 -8.5q-13 0 -21.5 8.5t-8.5 20.5v651q0 13 8.5 21.5t21.5 8.5q12 0 21.5 -8.5t9.5 -21.5v-288h455v288q0 13 9.5 21.5t21.5 8.5z" />
    <glyph glyph-name="I" unicode="I" horiz-adv-x="221" 
d="M80 675q0 12 9 21t21 9q13 0 22 -9t9 -21v-650q0 -12 -9 -21t-22 -9q-12 0 -21 9t-9 21v650z" />
    <glyph glyph-name="J" unicode="J" horiz-adv-x="641" 
d="M506 675q0 12 9 21t21 9q13 0 21.5 -9t8.5 -21v-411q0 -56 -19.5 -105t-55 -85.5t-83.5 -57.5t-105 -21q-60 0 -109 22.5t-83 60t-52.5 87t-18.5 104.5q0 12 8.5 20.5t20.5 8.5t20.5 -8.5t8.5 -20.5q0 -47 15.5 -88t43 -71t65 -47t81.5 -17q46 0 84 18.5t64 49.5
t40.5 72.5t14.5 86.5v402z" />
    <glyph glyph-name="K" unicode="K" horiz-adv-x="599" 
d="M142 390l346 308q3 2 8 4.5t11 2.5q12 0 20 -9t8 -20q0 -12 -11 -23l-324 -286l358 -320q11 -9 11 -23q0 -11 -9.5 -20t-21.5 -9q-10 0 -18 6l-378 342v-318q0 -12 -9 -21t-21 -9q-13 0 -22.5 9t-9.5 21v650q0 12 9.5 21t22.5 9q12 0 21 -9t9 -21v-285z" />
    <glyph glyph-name="L" unicode="L" horiz-adv-x="531" 
d="M80 675q0 12 9 21t21 9q13 0 21.5 -9t8.5 -21v-623h344q12 0 19.5 -7.5t7.5 -18.5q0 -10 -7.5 -18t-19.5 -8h-375q-12 0 -20.5 8.5t-8.5 21.5v645z" />
    <glyph glyph-name="M" unicode="M" horiz-adv-x="834" 
d="M754 27q0 -14 -8.5 -23t-22.5 -9q-13 0 -21 9t-8 23v613l-238 -297q-6 -8 -17 -15.5t-22 -7.5q-12 0 -22.5 7.5t-16.5 15.5l-238 297v-613q0 -14 -8 -23t-22 -9q-13 0 -21.5 9t-8.5 23v641q0 14 8.5 23t21.5 9h37q14 0 32 -21l238 -296l237 296q7 8 15.5 14.5t16.5 6.5
h37q14 0 22.5 -9t8.5 -23v-641z" />
    <glyph glyph-name="N" unicode="N" horiz-adv-x="755" 
d="M162 599l-22 37v-611q0 -13 -8 -21.5t-21 -8.5t-22 8.5t-9 21.5v645q0 12 8.5 21t22.5 9h33q5 0 14.5 -4.5t15.5 -12.5l419 -582l22 -37v612q0 12 8 20.5t21 8.5t22 -8.5t9 -20.5v-645q0 -12 -8.5 -21.5t-22.5 -9.5h-33q-5 0 -15 5t-16 13z" />
    <glyph glyph-name="O" unicode="O" horiz-adv-x="800" 
d="M50 349q0 72 27.5 137t74.5 113.5t111 77t137 28.5q72 0 136 -28.5t111.5 -77t75 -113.5t27.5 -137t-27.5 -136.5t-75 -112.5t-111.5 -76.5t-136 -28.5q-73 0 -137 28.5t-111 76.5t-74.5 112.5t-27.5 136.5zM110 349q0 -63 22 -118.5t60.5 -96.5t91.5 -65t116 -24
q62 0 115 24t92 65t61 96.5t22 118.5t-22 119t-61 97.5t-92 65.5t-115 24q-63 0 -116 -24t-91.5 -65.5t-60.5 -97.5t-22 -119z" />
    <glyph glyph-name="P" unicode="P" horiz-adv-x="585" 
d="M80 670q0 12 8.5 21t21.5 9h222q46 0 86.5 -17.5t71 -47.5t48 -71t17.5 -87t-17.5 -86.5t-48 -71t-71 -48t-86.5 -17.5h-192v-228q0 -12 -8.5 -21.5t-21.5 -9.5t-21.5 9.5t-8.5 21.5v644zM140 305h185q37 0 68.5 13.5t54 37t35 54.5t12.5 67t-12.5 67t-35 54.5t-54 37
t-68.5 13.5h-185v-344z" />
    <glyph glyph-name="Q" unicode="Q" horiz-adv-x="798" 
d="M400 -47q8 0 22.5 -5.5t28.5 -10.5q20 -7 46 -15t62.5 -14.5t86.5 -11t118 -4.5q9 0 16.5 -7.5t7.5 -18.5q0 -10 -7.5 -17.5t-16.5 -7.5q-89 -2 -182.5 10t-187.5 51q-8 4 -13.5 10.5t-5.5 15.5q0 11 7 18t18 7zM50 349q0 72 27.5 137t74.5 113.5t111 77t137 28.5
q72 0 136 -28.5t111.5 -77t75 -113.5t27.5 -137t-27.5 -136.5t-75 -112.5t-111.5 -76.5t-136 -28.5q-73 0 -137 28.5t-111 76.5t-74.5 112.5t-27.5 136.5zM110 349q0 -63 22 -118.5t60.5 -96.5t91.5 -65t116 -24q62 0 115 24t92 65t61 96.5t22 118.5t-22 119t-61 97.5
t-92 65.5t-115 24q-63 0 -116 -24t-91.5 -65.5t-60.5 -97.5t-22 -119z" />
    <glyph glyph-name="R" unicode="R" horiz-adv-x="621" 
d="M552 45q5 -6 5 -19q0 -11 -7.5 -21t-20.5 -10q-17 0 -25 11l-192 259h-173v-239q0 -12 -8.5 -21.5t-20.5 -9.5t-21 9.5t-9 21.5v644q0 13 9 21.5t21 8.5h231q46 0 86.5 -17t70 -47t46.5 -69.5t17 -84.5q0 -36 -12 -70.5t-35 -63.5t-56.5 -50t-75.5 -29zM139 316h193
q37 0 68 13t53.5 35.5t35 52.5t12.5 65q0 34 -12.5 64.5t-35 53.5t-53.5 36t-68 13h-193v-333z" />
    <glyph glyph-name="S" unicode="S" horiz-adv-x="549" 
d="M272 45q36 0 66.5 11.5t53.5 31t36 45t13 54.5q0 48 -28.5 75.5t-71 45.5t-92 32.5t-92 36t-71 56t-28.5 92.5q0 37 16.5 69.5t45 57t66 39t80.5 14.5q49 0 87.5 -14.5t64.5 -34t40 -38t14 -27.5q0 -14 -9 -21.5t-20 -7.5q-12 0 -18 6.5t-12 14.5q-24 29 -59.5 50.5
t-84.5 21.5q-36 0 -64 -10.5t-47.5 -28t-29.5 -40t-10 -47.5q0 -47 28.5 -73t71 -43.5t92 -32t92 -36t71 -57t28.5 -94.5q0 -44 -19.5 -80.5t-51.5 -62.5t-73.5 -40.5t-86.5 -14.5q-53 0 -93.5 16t-69 38t-43 43t-14.5 32q0 13 8 20.5t18 7.5q14 0 21.5 -8t12.5 -15
q11 -15 26.5 -30t35.5 -27t45 -19.5t55 -7.5z" />
    <glyph glyph-name="T" unicode="T" horiz-adv-x="531" 
d="M494 700q11 0 19 -7.5t8 -18.5t-8 -18.5t-19 -7.5h-199v-622q0 -12 -8.5 -21.5t-21.5 -9.5t-22 9.5t-9 21.5v622h-197q-11 0 -19 7.5t-8 18.5t8 18.5t19 7.5h457z" />
    <glyph glyph-name="U" unicode="U" horiz-adv-x="740" 
d="M75 675q0 12 9 21t22 9q12 0 20.5 -9t8.5 -21v-376q0 -61 20 -108.5t53 -79.5t75 -49t87 -17t87 16.5t75 49t53 79.5t20 109v377q0 11 8.5 20t20.5 9q13 0 22 -9t9 -20v-370q0 -72 -24 -129.5t-64.5 -98t-94 -62t-112.5 -21.5t-112 21.5t-94 62t-65 98t-24 128.5v370z
" />
    <glyph glyph-name="V" unicode="V" horiz-adv-x="658" 
d="M319 50h20l223 629q4 10 11 18t21 8q13 0 21 -9t8 -21q0 -1 -1 -7t-6 -21l-223 -623q-3 -10 -11.5 -17t-18.5 -7h-69q-10 0 -18 8t-12 19l-223 624q-4 11 -5 16.5t-1 7.5q0 12 8 21t21 9q14 0 21 -7.5t11 -18.5z" />
    <glyph glyph-name="W" unicode="W" horiz-adv-x="824" 
d="M718 32q-1 -14 -9 -23t-22 -9h-37q-8 0 -17 6t-15 15l-206 293l-207 -293q-15 -21 -32 -21h-37q-13 0 -21 9t-9 23l-41 641q0 14 8.5 23t21.5 9q14 0 21.5 -9t8.5 -23l41 -613l207 297q6 8 16.5 15.5t22.5 7.5q11 0 22 -7.5t17 -15.5l207 -297l41 613q1 14 8.5 23t20.5 9
q14 0 22.5 -9t8.5 -23z" />
    <glyph glyph-name="X" unicode="X" horiz-adv-x="703" 
d="M657 44q6 -8 6 -18q0 -12 -8.5 -21.5t-21.5 -9.5q-6 0 -13 3.5t-11 8.5l-257 314l-259 -315q-4 -5 -10.5 -8t-12.5 -3q-13 0 -21.5 9.5t-8.5 21.5q0 10 7 19l267 322l-236 289q-6 6 -6 19q0 12 9 21t20 9q6 0 13 -3.5t11 -8.5l226 -281l227 281q10 12 23 12q14 0 22 -10
t8 -21t-6 -18l-236 -289z" />
    <glyph glyph-name="Y" unicode="Y" horiz-adv-x="637" 
d="M606 698q11 -8 11 -23q0 -9 -7 -19l-261 -360v-270q0 -13 -8.5 -22t-22.5 -9q-12 0 -21 9t-9 22v270l-262 361q-6 9 -6 18q0 12 8 21t21 9q8 0 14.5 -4t10.5 -9l245 -338l245 340q8 11 23 11q9 0 19 -7z" />
    <glyph glyph-name="Z" unicode="Z" horiz-adv-x="651" 
d="M90 648q-11 0 -18.5 7.5t-7.5 18.5t7.5 18.5t18.5 7.5h461q17 0 28 -11t11 -27q0 -17 -11 -30l-460 -580h456q11 0 18.5 -7.5t7.5 -18.5t-7.5 -18.5t-18.5 -7.5h-487q-14 0 -26 11t-12 28q0 9 3 16.5t8 13.5l460 579h-431z" />
    <glyph glyph-name="bracketleft" unicode="[" horiz-adv-x="330" 
d="M90 696q0 13 9 22t20 9h143q11 0 19.5 -8t8.5 -19t-8.5 -18t-19.5 -7h-110v-766h110q11 0 19.5 -7.5t8.5 -18.5q0 -12 -8.5 -19t-19.5 -7h-143q-11 0 -20 9t-9 20v810z" />
    <glyph glyph-name="backslash" unicode="\" horiz-adv-x="302" 
d="M3 660q-2 4 -2.5 8.5t-0.5 7.5q0 12 7.5 20.5t20.5 8.5q15 0 21 -7t9 -15l242 -648q2 -6 2 -12q0 -11 -8 -19.5t-20 -8.5q-10 0 -18 5t-11 14z" />
    <glyph glyph-name="bracketright" unicode="]" horiz-adv-x="330" 
d="M240 -114q0 -11 -9 -20t-20 -9h-143q-11 0 -19.5 7t-8.5 19q0 11 8.5 18.5t19.5 7.5h110v766h-110q-11 0 -19.5 7t-8.5 18t8.5 19t19.5 8h143q11 0 20 -9t9 -22v-810z" />
    <glyph glyph-name="asciicircum" unicode="^" horiz-adv-x="509" 
d="M94 340q-8 -15 -22 -15q-10 0 -16 6t-6 14q0 3 1 6.5t2 5.5l176 334q8 14 25 14q18 0 26 -14l176 -334q1 -2 2 -5.5t1 -6.5q0 -8 -6 -14t-16 -6q-15 0 -22 15l-160 303z" />
    <glyph glyph-name="underscore" unicode="_" horiz-adv-x="521" 
d="M522 -81q11 0 17 -7t6 -15t-6 -15.5t-17 -7.5h-522q-11 0 -17.5 7.5t-6.5 15.5t6.5 15t17.5 7h522z" />
    <glyph glyph-name="grave" unicode="`" horiz-adv-x="161" 
d="M10 678q-4 4 -7 8.5t-3 11.5q0 11 8.5 19t19.5 8q3 0 7.5 -1t9.5 -5l107 -98q3 -2 6 -7.5t3 -11.5q0 -11 -8.5 -19t-19.5 -8t-17 6z" />
    <glyph glyph-name="a" unicode="a" horiz-adv-x="613" 
d="M543 26q0 -13 -8 -22t-21 -9t-21 9t-8 22v67q-9 -15 -25.5 -32t-40.5 -31.5t-55.5 -24.5t-71.5 -10q-53 0 -98 20t-78 54.5t-52 81t-19 100.5t19.5 100t53 80.5t78.5 54t96 19.5q40 0 72 -9.5t56 -24t40 -31.5t25 -32v67q0 12 8 21t21 9t21 -9t8 -21v-449zM294 42
q42 0 77 15.5t60.5 43t39.5 66t14 84.5t-14.5 84t-40.5 65t-61 42t-75 15q-41 0 -75.5 -16.5t-60.5 -44.5t-40.5 -65.5t-14.5 -79.5t14 -80t39.5 -66.5t60.5 -45.5t77 -17z" />
    <glyph glyph-name="b" unicode="b" horiz-adv-x="613" 
d="M70 720q0 12 8 21t21 9t21 -9t8 -21v-312q9 15 25 32t40 31.5t56 24t72 9.5q51 0 96 -19.5t78.5 -54t53 -80.5t19.5 -100t-19 -100.5t-52 -81t-78.5 -54.5t-97.5 -20q-40 0 -71.5 10t-55.5 24.5t-40.5 31.5t-25.5 32v-67q0 -13 -8 -22t-21 -9t-21 9t-8 22v694zM319 42
q42 0 77 17t60.5 45.5t39.5 66.5t14 80t-14.5 79.5t-40.5 65.5t-61 44.5t-75 16.5q-41 0 -75.5 -15t-60.5 -42t-40.5 -65t-14.5 -84t14 -84.5t39.5 -66t60.5 -43t77 -15.5z" />
    <glyph glyph-name="c" unicode="c" horiz-adv-x="493" 
d="M305 457q-43 0 -80 -16t-64 -44t-42.5 -65.5t-15.5 -80.5t15.5 -81t42.5 -66t64 -44.5t80 -16.5q38 0 66 14t42 23l9 4.5t10 2.5q11 0 18.5 -7.5t7.5 -18.5q0 -8 -5 -14.5t-11 -10.5q-17 -12 -53 -26.5t-84 -14.5q-54 0 -101.5 19t-83 53t-55.5 81t-20 103q0 55 20 101.5
t55.5 80.5t83 53t101.5 19q48 0 78 -12t46 -21q7 -4 13.5 -10.5t6.5 -16.5q0 -11 -7.5 -18.5t-18.5 -7.5q-9 0 -19 7q-20 13 -46.5 22t-52.5 9z" />
    <glyph glyph-name="d" unicode="d" horiz-adv-x="615" 
d="M543 26q0 -13 -8 -22t-21 -9t-21 9t-8 22v67q-9 -15 -25.5 -32t-40.5 -31.5t-55.5 -24.5t-71.5 -10q-53 0 -98 20t-78 54.5t-52 81t-19 100.5t19.5 100t53 80.5t78.5 54t96 19.5q40 0 72 -9.5t56 -24t40 -31.5t25 -32v312q0 12 8 21t21 9t21 -9t8 -21v-694zM294 42
q42 0 77 15.5t60.5 43t39.5 66t14 84.5t-14.5 84t-40.5 65t-61 42t-75 15q-41 0 -75.5 -16.5t-60.5 -44.5t-40.5 -65.5t-14.5 -79.5t14 -80t39.5 -66.5t60.5 -45.5t77 -17z" />
    <glyph glyph-name="e" unicode="e" horiz-adv-x="575" 
d="M104 225q3 -38 19 -71t41.5 -58t59 -39t72.5 -14q57 0 91 13.5t59 27.5q3 2 7 3.5t9 1.5q10 0 17 -7t7 -17q0 -9 -4.5 -14.5t-8.5 -7.5q-8 -5 -23 -13.5t-36.5 -16t-51 -13t-66.5 -5.5q-56 0 -102 20t-79 54.5t-51.5 81t-18.5 100.5t19.5 100t53.5 80.5t80 54t99 19.5
q52 0 97 -20t77 -52t50.5 -74t18.5 -85q0 -17 -12.5 -33t-35.5 -16h-388zM297 457q-39 0 -73 -14.5t-59.5 -39.5t-41.5 -58.5t-19 -71.5h383q-3 38 -18 71.5t-40 58.5t-58.5 39.5t-73.5 14.5z" />
    <glyph glyph-name="f" unicode="f" horiz-adv-x="305" 
d="M88 451h-59q-11 0 -17.5 7t-6.5 18t6.5 17.5t17.5 6.5h59v129q0 24 9 45.5t24 38.5t36 27t45 10h58q11 0 17.5 -7t6.5 -18t-6.5 -17.5t-17.5 -6.5h-43q-32 0 -51.5 -22.5t-19.5 -50.5v-128h120q11 0 17.5 -6.5t6.5 -17.5t-6.5 -18t-17.5 -7h-120v-425q0 -13 -8.5 -22
t-20.5 -9q-13 0 -21 9t-8 22v425z" />
    <glyph glyph-name="g" unicode="g" horiz-adv-x="498" 
d="M464 -75q0 -36 -18 -63.5t-47.5 -47t-68 -29.5t-80.5 -10q-41 0 -75 9.5t-59.5 23.5t-43 29.5t-26.5 27.5q-9 13 -9 22q0 11 7.5 19t19.5 8q10 0 16.5 -4.5t9.5 -8.5q12 -15 29 -29t37.5 -25t44.5 -17.5t49 -6.5q32 0 60.5 7t49.5 20t33.5 31.5t12.5 42.5
q0 23 -12.5 36.5t-31 23t-40.5 16.5t-40.5 16t-31 22t-12.5 35q0 10 3 18.5t7 15.5q4 8 10 15q-5 -1 -9 -1q-4 -1 -8.5 -1h-8.5q-39 0 -75 14.5t-63 40t-43 60.5t-16 77q0 40 16 75t43 61.5t63 41.5t77 15q33 0 69.5 -14.5t64.5 -41.5q14 23 36 37t48 14h18q12 0 20 -6.5
t8 -18.5t-8 -18.5t-20 -6.5h-10q-23 0 -37 -14.5t-18 -34.5q10 -20 16 -41.5t6 -47.5q0 -54 -25 -93t-57 -63q-25 -19 -36 -37.5t-11 -33.5q0 -13 12.5 -21.5t30.5 -16.5t40 -16.5t40 -22t30.5 -33.5t12.5 -50zM92 313q0 -30 10.5 -56.5t29 -46t44 -30.5t54.5 -11
q31 0 57 11t45 30.5t29.5 46t10.5 56.5t-10.5 56.5t-29.5 46t-45 30.5t-57 11q-29 0 -54.5 -11t-44 -30.5t-29 -46t-10.5 -56.5z" />
    <glyph glyph-name="h" unicode="h" horiz-adv-x="617" 
d="M128 411q13 19 32.5 36.5t43.5 30t52 20t57 7.5q51 0 95.5 -18.5t77.5 -52t52 -80.5t19 -104v-224q0 -13 -8 -22t-21 -9q-12 0 -20.5 9t-8.5 22v230q0 46 -15.5 83.5t-41 63t-59.5 39.5t-70 14t-69 -13.5t-59 -38.5t-41.5 -61t-15.5 -80v-237q0 -13 -8 -22t-20 -9
q-13 0 -21.5 9t-8.5 22v693q0 13 8.5 22t20.5 9t20.5 -9t8.5 -22v-308z" />
    <glyph glyph-name="i" unicode="i" horiz-adv-x="204" 
d="M131 26q0 -13 -8 -22t-21 -9t-21 9t-8 22v449q0 12 8 21t21 9t21 -9t8 -21v-449zM55 659q0 20 14 33t33 13q20 0 33.5 -13t13.5 -33t-13.5 -33.5t-33.5 -13.5q-19 0 -33 13.5t-14 33.5z" />
    <glyph glyph-name="j" unicode="j" horiz-adv-x="213" 
d="M83 475q0 12 8 21t21 9t21 -9t8 -21v-537q0 -38 -12 -68t-33 -51t-50 -32.5t-62 -11.5q-41 0 -70 18t-43 34l-10 12.5t-6 17.5t7 18t19 8q9 0 15 -4.5t10 -9.5q9 -12 28.5 -28.5t50.5 -16.5q45 0 71.5 29.5t26.5 73.5v548zM65 659q0 20 14 33t33 13q20 0 33 -13t13 -33
t-13 -33.5t-33 -13.5q-19 0 -33 13.5t-14 33.5z" />
    <glyph glyph-name="k" unicode="k" horiz-adv-x="466" 
d="M128 248v-221q0 -14 -8 -23t-22 -9q-11 0 -19.5 9t-8.5 23v692q0 13 8.5 22t20.5 9t20.5 -9t8.5 -22v-436l232 209q2 2 9 7.5t17 5.5q13 0 21 -8t8 -21q0 -8 -3.5 -13.5t-7.5 -8.5l-214 -188l248 -221q8 -8 8 -20t-7.5 -21t-21.5 -9q-13 0 -22 9z" />
    <glyph glyph-name="l" unicode="l" horiz-adv-x="198" 
d="M128 26q0 -13 -8.5 -22t-20.5 -9t-20.5 9t-8.5 22v693q0 13 8.5 22t20.5 9t20.5 -9t8.5 -22v-693z" />
    <glyph glyph-name="m" unicode="m" horiz-adv-x="943" 
d="M501 26q0 -13 -8.5 -22t-20.5 -9t-21 9t-9 22v264q0 34 -12 64t-33.5 52.5t-51.5 36t-65 13.5q-36 0 -65.5 -13.5t-50.5 -36t-33 -52.5t-12 -64v-264q0 -13 -8.5 -22t-20.5 -9q-13 0 -21.5 9t-8.5 22v255q0 44 16 84.5t45 71.5t69.5 49.5t90.5 18.5q25 0 51.5 -6.5
t52 -20t48 -34.5t38.5 -51q16 30 39 51t48.5 34.5t52 20t51.5 6.5q49 0 90 -18.5t70 -49.5t45 -71.5t16 -84.5v-255q0 -13 -8.5 -22t-21.5 -9q-12 0 -20.5 9t-8.5 22v264q0 34 -12 64t-33 52.5t-50.5 36t-65.5 13.5q-35 0 -65 -13.5t-51.5 -36t-33.5 -52.5t-12 -64v-264z
" />
    <glyph glyph-name="n" unicode="n" 
d="M487 256q0 46 -15.5 83.5t-41 63t-59 39.5t-69.5 14t-69.5 -14t-59 -39.5t-40.5 -63t-15 -83.5v-230q0 -13 -8.5 -22t-20.5 -9q-13 0 -21 9t-8 22v224q0 57 19 104t51.5 80.5t76.5 52t95 18.5t95 -18.5t77 -52t52 -80.5t19 -104v-224q0 -13 -8.5 -22t-21.5 -9
q-12 0 -20 9t-8 22v230z" />
    <glyph glyph-name="o" unicode="o" 
d="M560 251q0 -53 -20 -99.5t-55 -81t-82 -55t-101 -20.5q-55 0 -102 20t-81.5 54.5t-54 81t-19.5 100.5t20 100t55 80.5t81.5 54t100.5 19.5t101 -19.5t82 -54t55 -81t20 -99.5zM502 251q0 42 -15 79.5t-42 65.5t-63.5 44.5t-79.5 16.5q-42 0 -78.5 -16.5t-63.5 -44.5
t-42 -65.5t-15 -79.5t15 -80t41 -66.5t62.5 -45.5t80.5 -17q43 0 80 17t63.5 45.5t41.5 66.5t15 80z" />
    <glyph glyph-name="p" unicode="p" horiz-adv-x="613" 
d="M70 474q0 13 8 22t21 9t21 -9t8 -22v-67q9 15 25.5 32t40.5 31.5t55.5 24.5t71.5 10q52 0 97.5 -20t78.5 -54.5t52 -81t19 -100.5t-19.5 -100t-53 -80.5t-78.5 -54t-96 -19.5q-40 0 -72 9.5t-56 24t-40 31.5t-25 32v-287q0 -12 -8 -21t-21 -9t-21 9t-8 21v669zM319 458
q-42 0 -77 -15.5t-60.5 -43.5t-39.5 -66t-14 -84t14.5 -84t40.5 -65t60.5 -42t75.5 -15q40 0 75 16.5t61 44.5t40.5 65.5t14.5 79.5t-14 80t-39.5 66.5t-60.5 45.5t-77 17z" />
    <glyph glyph-name="q" unicode="q" horiz-adv-x="613" 
d="M543 -195q0 -12 -8 -21t-21 -9t-21 9t-8 21v287q-9 -15 -25 -32t-40 -31.5t-56 -24t-72 -9.5q-51 0 -96 19.5t-78.5 54t-53 80.5t-19.5 100t19 100.5t52 81t78 54.5t98 20q40 0 71.5 -10t55.5 -24.5t40.5 -31.5t25.5 -32v67q0 13 8 22t21 9t21 -9t8 -22v-669zM294 458
q-42 0 -77 -17t-60.5 -45.5t-39.5 -66.5t-14 -80t14.5 -79.5t40.5 -65.5t60.5 -44.5t75.5 -16.5q40 0 75 15t61 42t40.5 65t14.5 84t-14 84t-39.5 66t-60.5 43.5t-77 15.5z" />
    <glyph glyph-name="r" unicode="r" horiz-adv-x="407" 
d="M119 26q0 -13 -8.5 -22t-20.5 -9t-21 9t-9 22v269q0 44 15 82t41.5 66.5t63.5 45t82 16.5t77 -14t51 -28q12 -9 12 -23q0 -11 -7.5 -19t-19.5 -8q-11 0 -19 7q-16 12 -39.5 24t-55.5 12t-58 -11.5t-44.5 -31.5t-29 -48.5t-10.5 -61.5v-277z" />
    <glyph glyph-name="s" unicode="s" horiz-adv-x="476" 
d="M241 43q29 0 54 7t43 19.5t28.5 28.5t10.5 34q0 34 -24 53t-59.5 30.5t-77 20.5t-77 23.5t-59.5 39.5t-24 69q0 27 13 51.5t37 43.5t57 30.5t74 11.5q32 0 58 -6t46.5 -15t35 -19t22.5 -17q6 -6 10.5 -11.5t4.5 -13.5q0 -9 -6 -17.5t-20 -8.5q-8 0 -13 3.5t-14 10.5
q-20 16 -50 30.5t-75 14.5q-30 0 -53 -7.5t-38.5 -19.5t-24 -27t-8.5 -30q0 -32 24 -49t60 -28.5t78 -20.5t78 -24t60 -41t24 -70q0 -33 -16 -59.5t-43 -45.5t-62.5 -29t-74.5 -10q-36 0 -65 6.5t-51 16.5t-38 22.5t-28 24.5q-5 6 -6.5 11.5t-1.5 10.5q0 9 7 16.5t18 7.5
q8 0 14.5 -4.5t10.5 -7.5q25 -24 59 -40t82 -16z" />
    <glyph glyph-name="t" unicode="t" horiz-adv-x="303" 
d="M275 24q0 -11 -7 -17.5t-18 -6.5h-49q-24 0 -45 9t-36.5 24.5t-24 36.5t-8.5 44v337h-58q-11 0 -17.5 7t-6.5 18q0 9 6.5 16.5t17.5 7.5h58v103q0 13 8.5 21.5t20.5 8.5t20.5 -8.5t8.5 -21.5v-103h118q10 0 17.5 -6.5t7.5 -17.5t-7.5 -18t-17.5 -7h-118v-337
q0 -29 22 -47t46 -18h37q11 0 18 -7t7 -18z" />
    <glyph glyph-name="u" unicode="u" 
d="M487 474q0 13 8 22t20 9q13 0 21.5 -9t8.5 -22v-224q0 -57 -19 -104t-52 -80.5t-77 -52t-95 -18.5t-95 18.5t-76.5 52t-51.5 80.5t-19 104v224q0 13 8 22t21 9q12 0 20.5 -9t8.5 -22v-230q0 -47 15 -84t40.5 -62.5t59 -39.5t69.5 -14t69.5 14t59 39.5t41 62.5t15.5 84
v230z" />
    <glyph glyph-name="v" unicode="v" horiz-adv-x="484" 
d="M44 505q11 0 17.5 -5.5t9.5 -13.5l166 -440h10l166 440q3 8 9.5 13.5t17.5 5.5q13 0 21 -8.5t8 -21.5q0 -5 -2 -11l-169 -435q-5 -11 -15 -20t-28 -9h-27q-17 0 -27 9t-15 20l-169 435q-2 6 -2 11q0 13 8 21.5t21 8.5z" />
    <glyph glyph-name="w" unicode="w" horiz-adv-x="943" 
d="M501 210q0 -34 12 -64t33.5 -52.5t51.5 -36t65 -13.5q36 0 65.5 13.5t50.5 36t33 52.5t12 64v264q0 13 8.5 22t20.5 9q13 0 21.5 -9t8.5 -22v-255q0 -44 -16 -84.5t-45 -71.5t-70 -49.5t-90 -18.5q-25 0 -51.5 6t-52 19.5t-48.5 35t-39 51.5q-16 -30 -38.5 -51.5t-48 -35
t-52 -19.5t-51.5 -6q-50 0 -90.5 18.5t-69.5 49.5t-45 71.5t-16 84.5v255q0 13 8.5 22t21.5 9q12 0 20.5 -9t8.5 -22v-264q0 -34 12 -64t33 -52.5t50.5 -36t65.5 -13.5q35 0 65 13.5t51.5 36t33.5 52.5t12 64v264q0 13 9 22t21 9t20.5 -9t8.5 -22v-264z" />
    <glyph glyph-name="x" unicode="x" horiz-adv-x="538" 
d="M269 210l-174 -206q-8 -9 -22 -9q-11 0 -19.5 9t-8.5 20t6 17l182 211l-177 206q-6 7 -6 19q0 11 8.5 19.5t19.5 8.5q13 0 22 -9l169 -198l169 198q9 9 23 9q11 0 19 -8t8 -19q0 -13 -6 -20l-177 -206l182 -211q6 -6 6 -18q0 -11 -8.5 -19.5t-19.5 -8.5q-6 0 -12 2t-10 7
z" />
    <glyph glyph-name="y" unicode="y" horiz-adv-x="498" 
d="M221 -205q-8 -20 -29 -20q-12 0 -19 9t-7 20q0 5 0.5 7.5t1.5 5.5l79 201q-28 0 -38.5 9.5t-14.5 19.5l-177 418q-2 6 -2 11q0 13 8 21t23 8q17 0 26 -22l185 -439l167 441q8 20 26 20q13 0 21.5 -7t8.5 -21q0 -4 -1 -8t-2 -6z" />
    <glyph glyph-name="z" unicode="z" horiz-adv-x="474" 
d="M74 451q-11 0 -19 7t-8 18t8 17.5t19 6.5h314q17 0 28 -11t11 -25q0 -23 -17 -44l-308 -371h304q12 0 20 -7.5t8 -18.5q0 -10 -8 -16.5t-20 -6.5h-329q-15 0 -26 11t-11 27q0 10 4.5 22t16.5 27l302 364h-289z" />
    <glyph glyph-name="braceleft" unicode="{" horiz-adv-x="330" 
d="M68 293q0 -1 13 -6t29 -19.5t29 -41.5t13 -70v-151q0 -39 23.5 -67.5t62.5 -28.5h22q12 0 21 -7t9 -18q0 -13 -9 -20t-21 -7h-24q-34 0 -61 12.5t-46 34t-29 50.5t-10 61v149q0 26 -6.5 44t-16.5 29t-23 16.5t-25 7.5q-7 1 -17.5 7.5t-10.5 24.5q0 17 10.5 23t17.5 7
q12 1 25 6.5t23 17t16.5 29.5t6.5 44v149q0 32 10 61t29 50.5t46 34t61 12.5h24q12 0 21 -7t9 -20q0 -11 -9 -18t-21 -7h-22q-39 0 -62.5 -28.5t-23.5 -67.5v-151q0 -44 -13 -70.5t-29 -40.5q-18 -17 -42 -24z" />
    <glyph glyph-name="bar" unicode="|" horiz-adv-x="239" 
d="M149 -196q0 -12 -8.5 -20.5t-20.5 -8.5t-21 8.5t-9 20.5v916q0 12 9 21t21 9t20.5 -9t8.5 -21v-916z" />
    <glyph glyph-name="braceright" unicode="}" horiz-adv-x="330" 
d="M262 293q-24 7 -42 24q-16 14 -29 40.5t-13 70.5v151q0 39 -23.5 67.5t-62.5 28.5h-22q-12 0 -21 7t-9 18q0 13 9 20t21 7h24q34 0 61 -12.5t46 -34t29 -50.5t10 -61v-149q0 -26 6.5 -44t16.5 -29.5t23 -17t25 -6.5q7 -1 17.5 -7t10.5 -23q0 -18 -10.5 -24.5t-17.5 -7.5
q-12 -2 -25 -7.5t-23 -16.5t-16.5 -29t-6.5 -44v-149q0 -32 -10 -61t-29 -50.5t-46 -34t-61 -12.5h-24q-12 0 -21 7t-9 20q0 11 9 18t21 7h22q39 0 62.5 28.5t23.5 67.5v151q0 43 13 70t29 41.5t29 19.5t13 6z" />
    <glyph glyph-name="asciitilde" unicode="~" horiz-adv-x="564" 
d="M390 186q-29 0 -58.5 12.5t-58 27.5t-54.5 27.5t-47 12.5q-31 0 -44.5 -17.5t-20.5 -44.5q-2 -6 -7.5 -12t-15.5 -6q-9 0 -16.5 6.5t-7.5 17.5q0 16 6.5 34t20.5 34t35.5 26.5t51.5 10.5q28 0 58 -12.5t58.5 -27.5t54.5 -27.5t47 -12.5q31 0 44.5 17.5t20.5 44.5
q2 6 7.5 12t15.5 6q9 0 16.5 -6.5t7.5 -17.5q0 -16 -6.5 -34.5t-20.5 -34t-35.5 -26t-51.5 -10.5z" />
    <glyph glyph-name="uni00A0" unicode="&#xa0;" horiz-adv-x="300" 
 />
    <glyph glyph-name="exclamdown" unicode="&#xa1;" horiz-adv-x="254" 
d="M174 458q0 -20 -13.5 -33.5t-33.5 -13.5t-33.5 13.5t-13.5 33.5t13.5 33.5t33.5 13.5t33.5 -13.5t13.5 -33.5zM158 -174q0 -12 -9 -21.5t-22 -9.5q-14 0 -23 9.5t-9 21.5v448q0 12 9 22t23 10q13 0 22 -10t9 -22v-448z" />
    <glyph glyph-name="cent" unicode="&#xa2;" horiz-adv-x="513" 
d="M323 505q42 -2 69 -13.5t42 -19.5q7 -4 13.5 -10.5t6.5 -16.5q0 -11 -7.5 -18.5t-18.5 -7.5q-9 0 -19 7q-20 13 -46.5 22t-52.5 9q-43 0 -80 -16t-64.5 -44t-43.5 -65.5t-16 -80.5t16 -81t43.5 -66t64.5 -44.5t80 -16.5q38 0 66 14t42 23l9 4.5t10 2.5q11 0 18.5 -7.5
t7.5 -18.5q0 -8 -5 -14.5t-11 -10.5q-17 -11 -48.5 -25t-75.5 -16v-67q0 -11 -7 -18.5t-18 -7.5q-10 0 -17.5 7.5t-7.5 18.5v70q-48 6 -88.5 27t-70.5 54.5t-47 77t-17 94.5q0 50 17 93.5t47 76.5t70.5 54t88.5 27v77q0 10 7.5 17t17.5 7q11 0 18 -7t7 -17v-74z" />
    <glyph glyph-name="sterling" unicode="&#xa3;" horiz-adv-x="590" 
d="M134 368v173q0 36 12.5 66t35.5 51.5t57 34t78 12.5q49 0 92 -17t69 -43q3 -3 6 -8t3 -11q0 -11 -7.5 -18t-17.5 -7q-8 0 -14 3.5t-10 6.5q-19 17 -47.5 30.5t-69.5 13.5q-32 0 -55.5 -9.5t-39 -26t-23 -39t-7.5 -48.5v-164h186q8 0 14.5 -6.5t6.5 -17.5t-6.5 -17.5
t-14.5 -6.5h-186v-268h305q14 0 21.5 -8t7.5 -19t-7.5 -18t-21.5 -7h-398q-14 0 -21.5 7.5t-7.5 17.5q0 11 7.5 19t21.5 8h32v268h-72q-9 0 -16 6.5t-7 17.5t7 17.5t16 6.5h71z" />
    <glyph glyph-name="currency" unicode="&#xa4;" horiz-adv-x="552" 
d="M405 111q-29 -23 -62 -33.5t-67 -10.5q-35 0 -67.5 10.5t-61.5 33.5l-44 -44q-8 -8 -19 -8q-10 0 -17 7t-7 17q0 11 8 19l44 44q-23 29 -33.5 61.5t-10.5 66.5q0 35 11 67.5t34 61.5l-45 45q-8 8 -8 18q0 11 7 18t17 7q11 0 19 -8l45 -45q28 23 61 34t67 11t66.5 -11
t61.5 -34l45 45q8 8 18 8q11 0 18 -7t7 -18q0 -10 -8 -18l-45 -45q23 -29 34 -61.5t11 -67.5q0 -70 -44 -128l44 -44q8 -8 8 -19q0 -10 -7 -17t-18 -7q-10 0 -18 8zM165 164q23 -23 52 -35t59 -12q31 0 59.5 13t50.5 34.5t34.5 50t12.5 60.5q0 31 -12.5 59.5t-34.5 50.5
t-50.5 34.5t-59.5 12.5q-32 0 -60.5 -12.5t-50 -34.5t-34.5 -50.5t-13 -59.5q0 -30 12 -59t35 -52z" />
    <glyph glyph-name="yen" unicode="&#xa5;" horiz-adv-x="650" 
d="M354 148v-122q0 -13 -8.5 -22t-22.5 -9q-12 0 -21 9t-9 22v122h-163q-11 0 -18.5 7t-7.5 18q0 10 7.5 17.5t18.5 7.5h163v98h-163q-11 0 -18.5 7t-7.5 18q0 10 7.5 17.5t18.5 7.5h130l-204 311q-6 9 -6 18q0 12 8 21t21 9q8 0 14.5 -4t10.5 -9l220 -338l223 340
q8 11 23 11q9 0 19 -7q11 -8 11 -23q0 -9 -7 -19l-206 -310h135q10 0 17 -7.5t7 -17.5q0 -11 -7 -18t-17 -7h-168v-98h168q10 0 17 -7.5t7 -17.5q0 -11 -7 -18t-17 -7h-168z" />
    <glyph glyph-name="brokenbar" unicode="&#xa6;" horiz-adv-x="240" 
d="M150 388q0 -11 -9 -20.5t-20 -9.5q-13 0 -22 9.5t-9 20.5v331q0 13 9 22t22 9q11 0 20 -9t9 -22v-331zM150 -194q0 -12 -9 -21.5t-20 -9.5q-13 0 -22 9.5t-9 21.5v336q0 12 9 21t22 9q11 0 20 -9t9 -21v-336z" />
    <glyph glyph-name="section" unicode="&#xa7;" horiz-adv-x="630" 
d="M176 -250q-13 0 -21.5 7.5t-8.5 18.5q0 12 8.5 20.5t21.5 8.5h162q25 0 46 10t36 26t23.5 35t8.5 37q0 45 -29 70.5t-72.5 43t-94.5 32t-94.5 37t-72.5 58t-29 94.5q0 50 32.5 93.5t80.5 69.5q-23 24 -40 55.5t-17 68.5q0 31 13 61t36.5 53t55 37t68.5 14h165
q13 0 21.5 -7.5t8.5 -18.5q0 -12 -8.5 -20.5t-21.5 -8.5h-162q-25 0 -46 -10t-36 -26t-23.5 -35t-8.5 -37q0 -33 17 -55.5t44.5 -38t62.5 -27t72 -23t72 -26t62.5 -36t44.5 -53t17 -76.5q0 -51 -32.5 -94.5t-81.5 -68.5q24 -25 41 -56t17 -68q0 -32 -13 -61.5t-36.5 -52.5
t-55 -37t-68.5 -14h-165zM502 201q0 44 -25 71t-62.5 44.5t-82 29t-82.5 25.5q-27 0 -49.5 -10t-38.5 -27t-25 -39t-9 -46q0 -44 23.5 -70.5t60.5 -43.5t81.5 -29t86.5 -28q27 0 49.5 10.5t38.5 27.5t25 39t9 46z" />
    <glyph glyph-name="dieresis" unicode="&#xa8;" horiz-adv-x="260" 
d="M0 659q0 20 14 33t33 13q20 0 33.5 -13t13.5 -33t-13.5 -33.5t-33.5 -13.5q-19 0 -33 13.5t-14 33.5zM166 659q0 20 14 33t33 13q20 0 33.5 -13t13.5 -33t-13.5 -33.5t-33.5 -13.5q-19 0 -33 13.5t-14 33.5z" />
    <glyph glyph-name="copyright" unicode="&#xa9;" horiz-adv-x="832" 
d="M509 501q5 -2 12 -9t7 -18q0 -8 -6.5 -15t-16.5 -7t-16.5 2.5t-14.5 5.5t-19 5.5t-30 2.5q-25 0 -47 -9.5t-38 -25.5t-25 -37.5t-9 -46.5t9 -47t25 -38.5t38 -26.5t47 -10q17 0 27 2.5t17.5 5t14.5 5t18 2.5t17.5 -6.5t6.5 -14.5q0 -20 -27 -32.5t-72 -12.5
q-36 0 -67.5 13t-55 36.5t-37.5 55t-14 68.5q0 36 14 67.5t37.5 54.5t55 36t67.5 13q26 0 47 -5.5t35 -13.5zM719 350q0 64 -24 119t-65.5 96t-96.5 64.5t-117 23.5q-64 0 -119.5 -23.5t-96.5 -64.5t-64.5 -96t-23.5 -119q0 -63 23.5 -118.5t65 -97t97 -65t118.5 -23.5
q62 0 117 23.5t96.5 64.5t65.5 96.5t24 119.5zM772 350q0 -74 -28.5 -138.5t-77 -112.5t-113 -76t-137.5 -28q-74 0 -138.5 28t-113 76t-76.5 112.5t-28 138.5q0 73 28 138t76.5 113t113 76t138.5 28q73 0 137.5 -28t113 -76t77 -113t28.5 -138z" />
    <glyph glyph-name="ordfeminine" unicode="&#xaa;" horiz-adv-x="447" 
d="M367 398q0 -11 -8 -18.5t-19 -7.5t-19 7.5t-8 18.5v14q-26 -20 -54 -30t-57 -10q-34 0 -63.5 13t-51.5 35.5t-34.5 53t-12.5 65.5t13 65t35 52.5t51.5 35.5t62.5 13q29 0 57.5 -9.5t53.5 -31.5v15q0 11 8.5 18.5t18.5 7.5q11 0 19 -7.5t8 -18.5v-281zM319 539
q0 25 -8 47.5t-23 39t-36 26t-46 9.5t-46.5 -10t-37 -26.5t-24.5 -39t-9 -46.5t8.5 -46.5t24 -39.5t37 -27t47.5 -10q25 0 46 9.5t36 26.5t23 39t8 48z" />
    <glyph glyph-name="guillemotleft" unicode="&#xab;" horiz-adv-x="426" 
d="M205 125q5 -6 5 -15q0 -11 -7.5 -17t-16.5 -6q-13 0 -21 11l-98 135q-3 4 -5 10t-2 10q0 5 1.5 10.5t5.5 10.5l97 134q9 11 21 11q9 0 16.5 -6.5t7.5 -17.5q0 -8 -5 -14l-95 -128zM361 125q5 -6 5 -15q0 -11 -7.5 -17t-16.5 -6q-13 0 -21 11l-98 135q-3 4 -5 10t-2 10
q0 5 1.5 10.5t5.5 10.5l97 134q9 11 21 11q9 0 16.5 -6.5t7.5 -17.5q0 -8 -5 -14l-95 -128z" />
    <glyph glyph-name="logicalnot" unicode="&#xac;" horiz-adv-x="536" 
d="M455 358q9 0 15 -6t6 -17v-180q0 -11 -6.5 -17.5t-17.5 -6.5q-10 0 -17 6.5t-7 17.5v155h-344q-11 0 -17.5 7.5t-6.5 16.5q0 24 24 24h371z" />
    <glyph glyph-name="uni00AD" unicode="&#xad;" horiz-adv-x="405" 
d="M86 227q-11 0 -18.5 7t-7.5 18q0 10 7.5 17.5t18.5 7.5h235q10 0 17 -7.5t7 -17.5q0 -11 -7 -18t-17 -7h-235z" />
    <glyph glyph-name="registered" unicode="&#xae;" horiz-adv-x="832" 
d="M445 516q53 0 84 -31t31 -76q0 -36 -22.5 -63t-51.5 -33l62 -98q3 -5 4 -8.5t1 -5.5q0 -10 -7.5 -17.5t-17.5 -7.5q-16 0 -22 10l-74 123h-71v-108q0 -10 -8 -17.5t-19 -7.5q-10 0 -18 7.5t-8 17.5v286q0 11 8 20t18 9h111zM361 473v-124h81q35 0 52 17.5t17 44.5
t-18.5 44.5t-51.5 17.5h-80zM719 350q0 64 -24 119t-65.5 96t-96.5 64.5t-117 23.5q-64 0 -119.5 -23.5t-96.5 -64.5t-64.5 -96t-23.5 -119q0 -63 23.5 -118.5t65 -97t97 -65t118.5 -23.5q62 0 117 23.5t96.5 64.5t65.5 96.5t24 119.5zM772 350q0 -74 -28.5 -138.5
t-77 -112.5t-113 -76t-137.5 -28q-74 0 -138.5 28t-113 76t-76.5 112.5t-28 138.5q0 73 28 138t76.5 113t113 76t138.5 28q73 0 137.5 -28t113 -76t77 -113t28.5 -138z" />
    <glyph glyph-name="macron" unicode="&#xaf;" horiz-adv-x="292" 
d="M292 654q0 -13 -9 -21t-22 -8h-232q-12 0 -20.5 8t-8.5 21q0 11 8.5 19t20.5 8h232q13 0 22 -8t9 -19z" />
    <glyph glyph-name="degree" unicode="&#xb0;" horiz-adv-x="372" 
d="M322 570q0 -28 -10.5 -52.5t-29 -43t-43.5 -29.5t-54 -11q-28 0 -52.5 10.5t-43 29t-29 43t-10.5 53.5q0 28 11 53t29.5 43t43 28.5t51.5 10.5q28 0 53 -10.5t43.5 -29t29.5 -43t11 -52.5zM278 570q0 39 -27 65.5t-66 26.5q-19 0 -35.5 -7t-29 -19.5t-20 -29.5t-7.5 -36
q0 -42 27 -67.5t65 -25.5q39 0 66 25.5t27 67.5z" />
    <glyph glyph-name="plusminus" unicode="&#xb1;" horiz-adv-x="562" 
d="M306 360h172q10 0 17 -7.5t7 -17.5q0 -11 -7 -18t-17 -7h-172v-160q0 -11 -7 -18.5t-18 -7.5q-10 0 -17.5 7.5t-7.5 18.5v160h-170q-11 0 -18.5 7t-7.5 18q0 10 7.5 17.5t18.5 7.5h170v162q0 10 7.5 17t17.5 7q11 0 18 -7t7 -17v-162zM86 0q-11 0 -18.5 7t-7.5 18
q0 10 7.5 17.5t18.5 7.5h392q10 0 17 -7.5t7 -17.5q0 -11 -7 -18t-17 -7h-392z" />
    <glyph glyph-name="uni00B2" unicode="&#xb2;" horiz-adv-x="360" 
d="M210 510q11 12 22.5 30t11.5 46q0 13 -5 26t-15 23.5t-23.5 17.5t-31.5 7q-28 0 -47 -16.5t-26 -40.5q-2 -9 -9.5 -13t-13.5 -4q-12 0 -17 7.5t-5 12.5q0 10 3.5 18.5t6.5 14.5q5 10 14.5 21.5t23 21.5t31.5 16.5t39 6.5q28 0 51.5 -10.5t40 -27.5t25.5 -38.5t9 -42.5
q0 -33 -12 -56t-33 -45l-140 -142h175q11 0 18 -6t7 -16q0 -11 -7 -16.5t-18 -5.5h-206q-11 0 -20 8.5t-9 20.5q0 18 16 34z" />
    <glyph glyph-name="uni00B3" unicode="&#xb3;" horiz-adv-x="372" 
d="M181 705q28 0 50 -9.5t37.5 -24.5t23.5 -34t8 -38q0 -24 -12.5 -47.5t-38.5 -38.5q35 -17 54 -44.5t19 -59.5q0 -25 -11 -46.5t-29.5 -37.5t-44 -25t-53.5 -9q-31 0 -55.5 10.5t-42 24.5t-27 29.5t-9.5 26.5t6.5 18t17.5 7q8 0 14 -5t9 -12q8 -20 29.5 -37.5t56.5 -17.5
t60.5 21t25.5 56q0 16 -7.5 29.5t-19.5 23t-27.5 14.5t-31.5 5q-10 0 -17.5 5t-7.5 17q0 10 7 15.5t16 6.5q11 1 23 5.5t22.5 12.5t17.5 20.5t7 29.5q0 29 -22 46.5t-48 17.5q-31 0 -47.5 -14.5t-23.5 -30.5t-22 -16q-12 0 -16.5 7t-4.5 14q0 8 7 22t21 28t35.5 24.5
t50.5 10.5z" />
    <glyph glyph-name="acute" unicode="&#xb4;" horiz-adv-x="161" 
d="M45 581q-6 -6 -17 -6t-19.5 8t-8.5 19q0 6 3 11.5t6 7.5l107 98q5 4 9.5 5t7.5 1q11 0 19.5 -8t8.5 -19q0 -7 -3 -11.5t-7 -8.5z" />
    <glyph glyph-name="mu" unicode="&#xb5;" horiz-adv-x="627" 
d="M131 -194q0 -13 -9.5 -22t-21.5 -9t-21 9t-9 22v667q0 13 9 22t22 9q12 0 21 -9t9 -22v-241q0 -44 15 -79t40.5 -59.5t58 -37.5t68.5 -13t69.5 14t59 39.5t40.5 62.5t15 84v230q0 13 8.5 22t20.5 9q13 0 22 -9t9 -22v-447q0 -13 -8.5 -22t-21.5 -9t-21.5 9t-8.5 22v56
q-32 -42 -80.5 -65t-103.5 -23q-57 0 -105.5 24.5t-76.5 62.5v-275z" />
    <glyph glyph-name="paragraph" unicode="&#xb6;" horiz-adv-x="584" 
d="M387 634h-74v-361q0 -28 -26 -28q-47 0 -88 18t-72 48.5t-49 72t-18 88.5t17.5 88.5t48.5 72.5t72.5 49t88.5 18h183q14 0 24 -9.5t10 -24.5q0 -11 -13.5 -21.5t-34.5 -10.5v-709q0 -29 -12.5 -56t-34.5 -48t-50.5 -33.5t-61.5 -12.5q-23 0 -46 6.5t-42 18.5t-31 27.5
t-12 33.5q0 13 9 20.5t18 7.5q14 0 20.5 -6t11.5 -11q11 -14 26.5 -25.5t47.5 -11.5q17 0 33 7t28 19t19 28t7 34z" />
    <glyph glyph-name="periodcentered" unicode="&#xb7;" horiz-adv-x="234" 
d="M70 350q0 20 13.5 33.5t33.5 13.5t33.5 -13.5t13.5 -33.5t-13.5 -33.5t-33.5 -13.5t-33.5 13.5t-13.5 33.5z" />
    <glyph glyph-name="cedilla" unicode="&#xb8;" horiz-adv-x="289" 
d="M126 -67q0 12 7.5 18.5t19.5 6.5h9q20 0 37.5 -7.5t30.5 -20.5t20.5 -30.5t7.5 -36.5q0 -17 -6.5 -32.5t-18 -26.5t-26 -17.5t-30.5 -6.5h-88q-11 0 -18 6.5t-7 17.5q0 13 7 20t18 7h73q16 0 26.5 13t10.5 28q0 16 -11.5 26.5t-25.5 10.5h-10q-11 0 -18.5 6.5t-7.5 17.5z
" />
    <glyph glyph-name="uni00B9" unicode="&#xb9;" horiz-adv-x="217" 
d="M147 321q0 -11 -7 -19t-18 -8t-19 8t-8 19v334h-41q-10 0 -17 6.5t-7 16.5q0 9 7 15.5t17 6.5h68q11 0 18 -7t7 -18v-354z" />
    <glyph glyph-name="ordmasculine" unicode="&#xba;" horiz-adv-x="426" 
d="M376 540q0 -35 -12.5 -65t-34.5 -53t-52 -36t-64 -13q-35 0 -64.5 13t-51.5 35.5t-34.5 53t-12.5 65.5q0 34 12.5 64.5t34.5 52.5t52 35t64 13t64 -13t52 -35.5t34.5 -52.5t12.5 -64zM329 540q0 24 -9 45.5t-24.5 38t-36.5 26.5t-46 10q-24 0 -45.5 -10t-37 -26.5
t-24.5 -38t-9 -45.5t8.5 -46t24 -39.5t37 -27.5t46.5 -10t46.5 10t37 27.5t24 39.5t8.5 46z" />
    <glyph glyph-name="guillemotright" unicode="&#xbb;" horiz-adv-x="426" 
d="M317 253l-95 128q-5 6 -5 14q0 11 7.5 17.5t16.5 6.5q12 0 21 -11l97 -134q4 -5 5.5 -10.5t1.5 -10.5q0 -4 -2 -10t-5 -10l-98 -135q-8 -11 -21 -11q-9 0 -16.5 6t-7.5 17q0 9 5 15zM161 253l-95 128q-5 6 -5 14q0 11 7.5 17.5t16.5 6.5q12 0 21 -11l97 -134
q4 -5 5.5 -10.5t1.5 -10.5q0 -4 -2 -10t-5 -10l-98 -135q-8 -11 -21 -11q-9 0 -16.5 6t-7.5 17q0 9 5 15z" />
    <glyph glyph-name="onequarter" unicode="&#xbc;" horiz-adv-x="750" 
d="M644 100v-80q0 -11 -7 -18t-18 -7t-19 7t-8 18v80h-172q-14 0 -24.5 10t-10.5 23q0 6 2.5 13t6.5 12l156 228q3 5 8.5 10t12.5 5h48q11 0 18 -7.5t7 -18.5v-229h32q10 0 17 -7t7 -16q0 -10 -7 -16.5t-17 -6.5h-32zM592 146v218l-151 -218h151zM167 321q0 -11 -7 -19
t-18 -8t-19 8t-8 19v334h-41q-10 0 -17 6.5t-7 16.5q0 9 7 15.5t17 6.5h68q11 0 18 -7t7 -18v-354zM515 692q8 13 23 13q9 0 15.5 -7t6.5 -16q0 -6 -3 -11t-5 -9l-407 -653q-9 -14 -23 -14q-9 0 -16 6.5t-7 15.5q0 6 3 11t5 9z" />
    <glyph glyph-name="onehalf" unicode="&#xbd;" horiz-adv-x="769" 
d="M167 321q0 -11 -7 -19t-18 -8t-19 8t-8 19v334h-41q-10 0 -17 6.5t-7 16.5q0 9 7 15.5t17 6.5h68q11 0 18 -7t7 -18v-354zM515 692q8 13 23 13q9 0 15.5 -7t6.5 -16q0 -6 -3 -11t-5 -9l-407 -653q-9 -14 -23 -14q-9 0 -16 6.5t-7 15.5q0 6 3 11t5 9zM619 211
q11 12 22.5 30t11.5 46q0 13 -5 26t-15 23.5t-23.5 17.5t-31.5 7q-28 0 -47 -16.5t-26 -40.5q-2 -9 -9.5 -13t-13.5 -4q-12 0 -17 7.5t-5 12.5q0 10 3.5 18.5t6.5 14.5q5 10 14.5 21.5t23 21.5t31.5 16.5t39 6.5q28 0 51.5 -10.5t40 -27.5t25.5 -38.5t9 -42.5q0 -33 -12 -56
t-33 -45l-140 -142h175q11 0 18 -6t7 -16q0 -11 -7 -16.5t-18 -5.5h-206q-11 0 -20 8.5t-9 20.5q0 18 16 34z" />
    <glyph glyph-name="threequarters" unicode="&#xbe;" horiz-adv-x="865" 
d="M759 100v-80q0 -11 -7 -18t-18 -7t-19 7t-8 18v80h-172q-14 0 -24.5 10t-10.5 23q0 6 2.5 13t6.5 12l156 228q3 5 8.5 10t12.5 5h48q11 0 18 -7.5t7 -18.5v-229h32q10 0 17 -7t7 -16q0 -10 -7 -16.5t-17 -6.5h-32zM707 146v218l-151 -218h151zM630 692q8 13 23 13
q9 0 15.5 -7t6.5 -16q0 -6 -3 -11t-5 -9l-407 -653q-9 -14 -23 -14q-9 0 -16 6.5t-7 15.5q0 6 3 11t5 9zM181 705q28 0 50 -9.5t37.5 -24.5t23.5 -34t8 -38q0 -24 -12.5 -47.5t-38.5 -38.5q35 -17 54 -44.5t19 -59.5q0 -25 -11 -46.5t-29.5 -37.5t-44 -25t-53.5 -9
q-31 0 -55.5 10.5t-42 24.5t-27 29.5t-9.5 26.5t6.5 18t17.5 7q8 0 14 -5t9 -12q8 -20 29.5 -37.5t56.5 -17.5t60.5 21t25.5 56q0 16 -7.5 29.5t-19.5 23t-27.5 14.5t-31.5 5q-10 0 -17.5 5t-7.5 17q0 10 7 15.5t16 6.5q11 1 23 5.5t22.5 12.5t17.5 20.5t7 29.5
q0 29 -22 46.5t-48 17.5q-31 0 -47.5 -14.5t-23.5 -30.5t-22 -16q-12 0 -16.5 7t-4.5 14q0 8 7 22t21 28t35.5 24.5t50.5 10.5z" />
    <glyph glyph-name="questiondown" unicode="&#xbf;" horiz-adv-x="484" 
d="M245 -205q-39 0 -73 14t-59 38t-39 55t-14 66t12 61.5t30.5 49.5t39.5 43.5t39.5 42.5t30.5 47.5t12 58.5q0 14 9 24.5t23 10.5t22.5 -10.5t8.5 -23.5q0 -36 -12.5 -64.5t-31 -52.5t-40 -45t-40 -43t-31 -46.5t-12.5 -54.5q0 -24 10 -46t27 -38.5t40 -26.5t49 -10
q29 0 50.5 9.5t36.5 24t24 31.5t12 32q2 11 10 18t19 7q13 0 19.5 -10t6.5 -18q0 -18 -11 -43t-33.5 -47.5t-56 -38t-78.5 -15.5zM303 458q0 -20 -13.5 -33.5t-33.5 -13.5t-33.5 13.5t-13.5 33.5t13.5 33.5t33.5 13.5t33.5 -13.5t13.5 -33.5z" />
    <glyph glyph-name="Agrave" unicode="&#xc0;" horiz-adv-x="672" 
d="M630 53q5 -15 6 -21t1 -7q0 -12 -8 -21t-21 -9q-14 0 -21 8t-10 18l-68 183h-347l-67 -183q-4 -11 -10.5 -18.5t-20.5 -7.5q-13 0 -21 9t-8 21q0 2 1 7.5t5 16.5l230 624q4 11 12 19t18 8h69q10 0 18.5 -7t11.5 -17zM490 256l-144 395h-20l-145 -395h309zM230 878
q-4 4 -7 8.5t-3 11.5q0 11 8.5 19t19.5 8q3 0 7.5 -1t9.5 -5l107 -98q3 -2 6 -7.5t3 -11.5q0 -11 -8.5 -19t-19.5 -8t-17 6z" />
    <glyph glyph-name="Aacute" unicode="&#xc1;" horiz-adv-x="672" 
d="M630 53q5 -15 6 -21t1 -7q0 -12 -8 -21t-21 -9q-14 0 -21 8t-10 18l-68 183h-347l-67 -183q-4 -11 -10.5 -18.5t-20.5 -7.5q-13 0 -21 9t-8 21q0 2 1 7.5t5 16.5l230 624q4 11 12 19t18 8h69q10 0 18.5 -7t11.5 -17zM490 256l-144 395h-20l-145 -395h309zM328 781
q-6 -6 -17 -6t-19.5 8t-8.5 19q0 6 3 11.5t6 7.5l107 98q5 4 9.5 5t7.5 1q11 0 19.5 -8t8.5 -19q0 -7 -3 -11.5t-7 -8.5z" />
    <glyph glyph-name="Acircumflex" unicode="&#xc2;" horiz-adv-x="672" 
d="M630 53q5 -15 6 -21t1 -7q0 -12 -8 -21t-21 -9q-14 0 -21 8t-10 18l-68 183h-347l-67 -183q-4 -11 -10.5 -18.5t-20.5 -7.5q-13 0 -21 9t-8 21q0 2 1 7.5t5 16.5l230 624q4 11 12 19t18 8h69q10 0 18.5 -7t11.5 -17zM490 256l-144 395h-20l-145 -395h309zM335 861
l-86 -78q-6 -6 -17 -6t-19.5 7.5t-8.5 17.5q0 6 3 11.5t6 7.5l98 90q5 4 10.5 7t13.5 3q9 0 15 -3.5t10 -6.5l98 -90q3 -2 6 -7.5t3 -11.5q0 -10 -8.5 -17.5t-19.5 -7.5t-17 6z" />
    <glyph glyph-name="Atilde" unicode="&#xc3;" horiz-adv-x="672" 
d="M630 53q5 -15 6 -21t1 -7q0 -12 -8 -21t-21 -9q-14 0 -21 8t-10 18l-68 183h-347l-67 -183q-4 -11 -10.5 -18.5t-20.5 -7.5q-13 0 -21 9t-8 21q0 2 1 7.5t5 16.5l230 624q4 11 12 19t18 8h69q10 0 18.5 -7t11.5 -17zM490 256l-144 395h-20l-145 -395h309zM276 905
q22 0 40 -9t33 -19.5t28 -19t25 -8.5q17 0 24.5 8.5t12 19t10 19.5t18.5 9q11 0 19.5 -8t8.5 -20q0 -11 -5.5 -25t-17.5 -26t-30 -20.5t-43 -8.5q-22 0 -40 8.5t-33 19t-28 19.5t-25 9q-17 0 -24.5 -9t-12 -19.5t-10 -19t-18.5 -8.5q-11 0 -19.5 8t-8.5 20q0 11 5.5 25
t17.5 26t30 20.5t43 8.5z" />
    <glyph glyph-name="Adieresis" unicode="&#xc4;" horiz-adv-x="672" 
d="M630 53q5 -15 6 -21t1 -7q0 -12 -8 -21t-21 -9q-14 0 -21 8t-10 18l-68 183h-347l-67 -183q-4 -11 -10.5 -18.5t-20.5 -7.5q-13 0 -21 9t-8 21q0 2 1 7.5t5 16.5l230 624q4 11 12 19t18 8h69q10 0 18.5 -7t11.5 -17zM490 256l-144 395h-20l-145 -395h309zM206 859
q0 20 14 33t33 13q20 0 33.5 -13t13.5 -33t-13.5 -33.5t-33.5 -13.5q-19 0 -33 13.5t-14 33.5zM372 859q0 20 14 33t33 13q20 0 33.5 -13t13.5 -33t-13.5 -33.5t-33.5 -13.5q-19 0 -33 13.5t-14 33.5z" />
    <glyph glyph-name="Aring" unicode="&#xc5;" horiz-adv-x="672" 
d="M630 53q5 -15 6 -21t1 -7q0 -12 -8 -21t-21 -9q-14 0 -21 8t-10 18l-68 183h-347l-67 -183q-4 -11 -10.5 -18.5t-20.5 -7.5q-13 0 -21 9t-8 21q0 2 1 7.5t5 16.5l230 624q4 11 12 19t18 8h69q10 0 18.5 -7t11.5 -17zM490 256l-144 395h-20l-145 -395h309zM237 844
q0 20 8 38t21.5 31.5t31.5 21.5t38 8t38 -8t31.5 -21.5t21.5 -31.5t8 -38t-8 -37.5t-21.5 -31t-31.5 -21.5t-38 -8t-38 8t-31.5 21.5t-21.5 31t-8 37.5zM281 844q0 -23 16 -39t39 -16t39 16t16 39t-16 39t-39 16t-39 -16t-16 -39z" />
    <glyph glyph-name="AE" unicode="&#xc6;" horiz-adv-x="998" 
d="M921 52q12 0 19.5 -7.5t7.5 -18.5q0 -10 -7.5 -18t-19.5 -8h-400q-12 0 -20.5 8.5t-8.5 21.5v174h-314l-100 -186q-4 -7 -10.5 -15t-19.5 -8q-14 0 -21 8.5t-7 18.5q0 13 9 28l336 624q6 11 15 18.5t19 7.5h522q12 0 19.5 -8t7.5 -18q0 -11 -7.5 -18.5t-19.5 -7.5h-369
v-260h309q11 0 18 -7.5t7 -17.5q0 -11 -7 -19t-18 -8h-309v-284h369zM492 256v396h-74l-212 -396h286z" />
    <glyph glyph-name="Ccedilla" unicode="&#xc7;" horiz-adv-x="648" 
d="M50 350q0 72 27.5 136t74.5 113t111 77.5t137 28.5q95 0 176 -48q13 -8 13 -23q0 -11 -7.5 -19t-18.5 -8q-9 0 -15 4q-32 20 -69 32t-79 12q-63 0 -116 -24.5t-91.5 -66t-60.5 -97t-22 -117.5q0 -63 22 -119t60.5 -97t91.5 -65t116 -24q50 0 91 15.5t75 39.5q8 5 17 5
q11 0 18 -7.5t7 -18.5q0 -10 -4.5 -15t-11.5 -10q-45 -31 -95 -45t-97 -14q-73 0 -137 28.5t-111 77t-74.5 113t-27.5 136.5zM365 -67q0 12 7.5 18.5t19.5 6.5h9q20 0 37.5 -7.5t30.5 -20.5t20.5 -30.5t7.5 -36.5q0 -17 -6.5 -32.5t-18 -26.5t-26 -17.5t-30.5 -6.5h-88
q-11 0 -18 6.5t-7 17.5q0 13 7 20t18 7h73q16 0 26.5 13t10.5 28q0 16 -11.5 26.5t-25.5 10.5h-10q-11 0 -18.5 6.5t-7.5 17.5z" />
    <glyph glyph-name="Egrave" unicode="&#xc8;" horiz-adv-x="596" 
d="M519 52q12 0 19.5 -7.5t7.5 -18.5q0 -10 -7.5 -18t-19.5 -8h-410q-12 0 -20.5 8.5t-8.5 21.5v642q0 12 8.5 20t20.5 8h410q12 0 19.5 -8t7.5 -18q0 -11 -7.5 -18.5t-19.5 -7.5h-379v-260h319q11 0 18 -7.5t7 -17.5q0 -11 -7 -19t-18 -8h-319v-284h379zM227 878
q-4 4 -7 8.5t-3 11.5q0 11 8.5 19t19.5 8q3 0 7.5 -1t9.5 -5l107 -98q3 -2 6 -7.5t3 -11.5q0 -11 -8.5 -19t-19.5 -8t-17 6z" />
    <glyph glyph-name="Eacute" unicode="&#xc9;" horiz-adv-x="596" 
d="M519 52q12 0 19.5 -7.5t7.5 -18.5q0 -10 -7.5 -18t-19.5 -8h-410q-12 0 -20.5 8.5t-8.5 21.5v642q0 12 8.5 20t20.5 8h410q12 0 19.5 -8t7.5 -18q0 -11 -7.5 -18.5t-19.5 -7.5h-379v-260h319q11 0 18 -7.5t7 -17.5q0 -11 -7 -19t-18 -8h-319v-284h379zM293 781
q-6 -6 -17 -6t-19.5 8t-8.5 19q0 6 3 11.5t6 7.5l107 98q5 4 9.5 5t7.5 1q11 0 19.5 -8t8.5 -19q0 -7 -3 -11.5t-7 -8.5z" />
    <glyph glyph-name="Ecircumflex" unicode="&#xca;" horiz-adv-x="596" 
d="M519 52q12 0 19.5 -7.5t7.5 -18.5q0 -10 -7.5 -18t-19.5 -8h-410q-12 0 -20.5 8.5t-8.5 21.5v642q0 12 8.5 20t20.5 8h410q12 0 19.5 -8t7.5 -18q0 -11 -7.5 -18.5t-19.5 -7.5h-379v-260h319q11 0 18 -7.5t7 -17.5q0 -11 -7 -19t-18 -8h-319v-284h379zM297 861l-86 -78
q-6 -6 -17 -6t-19.5 7.5t-8.5 17.5q0 6 3 11.5t6 7.5l98 90q5 4 10.5 7t13.5 3q9 0 15 -3.5t10 -6.5l98 -90q3 -2 6 -7.5t3 -11.5q0 -10 -8.5 -17.5t-19.5 -7.5t-17 6z" />
    <glyph glyph-name="Edieresis" unicode="&#xcb;" horiz-adv-x="596" 
d="M519 52q12 0 19.5 -7.5t7.5 -18.5q0 -10 -7.5 -18t-19.5 -8h-410q-12 0 -20.5 8.5t-8.5 21.5v642q0 12 8.5 20t20.5 8h410q12 0 19.5 -8t7.5 -18q0 -11 -7.5 -18.5t-19.5 -7.5h-379v-260h319q11 0 18 -7.5t7 -17.5q0 -11 -7 -19t-18 -8h-319v-284h379zM168 859
q0 20 14 33t33 13q20 0 33.5 -13t13.5 -33t-13.5 -33.5t-33.5 -13.5q-19 0 -33 13.5t-14 33.5zM334 859q0 20 14 33t33 13q20 0 33.5 -13t13.5 -33t-13.5 -33.5t-33.5 -13.5q-19 0 -33 13.5t-14 33.5z" />
    <glyph glyph-name="Igrave" unicode="&#xcc;" horiz-adv-x="221" 
d="M80 675q0 12 9 21t21 9q13 0 22 -9t9 -21v-650q0 -12 -9 -21t-22 -9q-12 0 -21 9t-9 21v650zM10 878q-4 4 -7 8.5t-3 11.5q0 11 8.5 19t19.5 8q3 0 7.5 -1t9.5 -5l107 -98q3 -2 6 -7.5t3 -11.5q0 -11 -8.5 -19t-19.5 -8t-17 6z" />
    <glyph glyph-name="Iacute" unicode="&#xcd;" horiz-adv-x="221" 
d="M80 675q0 12 9 21t21 9q13 0 22 -9t9 -21v-650q0 -12 -9 -21t-22 -9q-12 0 -21 9t-9 21v650zM105 781q-6 -6 -17 -6t-19.5 8t-8.5 19q0 6 3 11.5t6 7.5l107 98q5 4 9.5 5t7.5 1q11 0 19.5 -8t8.5 -19q0 -7 -3 -11.5t-7 -8.5z" />
    <glyph glyph-name="Icircumflex" unicode="&#xce;" horiz-adv-x="221" 
d="M80 675q0 12 9 21t21 9q13 0 22 -9t9 -21v-650q0 -12 -9 -21t-22 -9q-12 0 -21 9t-9 21v650zM110 861l-86 -78q-6 -6 -17 -6t-19.5 7.5t-8.5 17.5q0 6 3 11.5t6 7.5l98 90q5 4 10.5 7t13.5 3q9 0 15 -3.5t10 -6.5l98 -90q3 -2 6 -7.5t3 -11.5q0 -10 -8.5 -17.5
t-19.5 -7.5t-17 6z" />
    <glyph glyph-name="Idieresis" unicode="&#xcf;" horiz-adv-x="221" 
d="M80 675q0 12 9 21t21 9q13 0 22 -9t9 -21v-650q0 -12 -9 -21t-22 -9q-12 0 -21 9t-9 21v650zM-19 859q0 20 14 33t33 13q20 0 33.5 -13t13.5 -33t-13.5 -33.5t-33.5 -13.5q-19 0 -33 13.5t-14 33.5zM147 859q0 20 14 33t33 13q20 0 33.5 -13t13.5 -33t-13.5 -33.5
t-33.5 -13.5q-19 0 -33 13.5t-14 33.5z" />
    <glyph glyph-name="Eth" unicode="&#xd0;" horiz-adv-x="679" 
d="M287 700q76 0 139.5 -27t109.5 -74.5t72 -110.5t26 -135t-26 -136t-72 -112.5t-109.5 -76.5t-139.5 -28h-176q-11 0 -18.5 8t-7.5 20v308h-34q-11 0 -18.5 7t-7.5 18q0 10 7.5 17.5t18.5 7.5h34v286q0 12 7.5 20t18.5 8h176zM145 336v-284h142q65 0 118 24.5t91 66
t58.5 96t20.5 114.5t-20.5 114t-58.5 94t-91 63.5t-118 23.5h-142v-262h123q10 0 17 -7.5t7 -17.5q0 -11 -7 -18t-17 -7h-123z" />
    <glyph glyph-name="Ntilde" unicode="&#xd1;" horiz-adv-x="755" 
d="M162 599l-22 37v-611q0 -13 -8 -21.5t-21 -8.5t-22 8.5t-9 21.5v645q0 12 8.5 21t22.5 9h33q5 0 14.5 -4.5t15.5 -12.5l419 -582l22 -37v612q0 12 8 20.5t21 8.5t22 -8.5t9 -20.5v-645q0 -12 -8.5 -21.5t-22.5 -9.5h-33q-5 0 -15 5t-16 13zM317 905q22 0 40 -9t33 -19.5
t28 -19t25 -8.5q17 0 24.5 8.5t12 19t10 19.5t18.5 9q11 0 19.5 -8t8.5 -20q0 -11 -5.5 -25t-17.5 -26t-30 -20.5t-43 -8.5q-22 0 -40 8.5t-33 19t-28 19.5t-25 9q-17 0 -24.5 -9t-12 -19.5t-10 -19t-18.5 -8.5q-11 0 -19.5 8t-8.5 20q0 11 5.5 25t17.5 26t30 20.5t43 8.5z
" />
    <glyph glyph-name="Ograve" unicode="&#xd2;" horiz-adv-x="800" 
d="M50 349q0 72 27.5 137t74.5 113.5t111 77t137 28.5q72 0 136 -28.5t111.5 -77t75 -113.5t27.5 -137t-27.5 -136.5t-75 -112.5t-111.5 -76.5t-136 -28.5q-73 0 -137 28.5t-111 76.5t-74.5 112.5t-27.5 136.5zM110 349q0 -63 22 -118.5t60.5 -96.5t91.5 -65t116 -24
q62 0 115 24t92 65t61 96.5t22 118.5t-22 119t-61 97.5t-92 65.5t-115 24q-63 0 -116 -24t-91.5 -65.5t-60.5 -97.5t-22 -119zM302 878q-4 4 -7 8.5t-3 11.5q0 11 8.5 19t19.5 8q3 0 7.5 -1t9.5 -5l107 -98q3 -2 6 -7.5t3 -11.5q0 -11 -8.5 -19t-19.5 -8t-17 6z" />
    <glyph glyph-name="Oacute" unicode="&#xd3;" horiz-adv-x="800" 
d="M50 349q0 72 27.5 137t74.5 113.5t111 77t137 28.5q72 0 136 -28.5t111.5 -77t75 -113.5t27.5 -137t-27.5 -136.5t-75 -112.5t-111.5 -76.5t-136 -28.5q-73 0 -137 28.5t-111 76.5t-74.5 112.5t-27.5 136.5zM110 349q0 -63 22 -118.5t60.5 -96.5t91.5 -65t116 -24
q62 0 115 24t92 65t61 96.5t22 118.5t-22 119t-61 97.5t-92 65.5t-115 24q-63 0 -116 -24t-91.5 -65.5t-60.5 -97.5t-22 -119zM392 781q-6 -6 -17 -6t-19.5 8t-8.5 19q0 6 3 11.5t6 7.5l107 98q5 4 9.5 5t7.5 1q11 0 19.5 -8t8.5 -19q0 -7 -3 -11.5t-7 -8.5z" />
    <glyph glyph-name="Ocircumflex" unicode="&#xd4;" horiz-adv-x="800" 
d="M50 349q0 72 27.5 137t74.5 113.5t111 77t137 28.5q72 0 136 -28.5t111.5 -77t75 -113.5t27.5 -137t-27.5 -136.5t-75 -112.5t-111.5 -76.5t-136 -28.5q-73 0 -137 28.5t-111 76.5t-74.5 112.5t-27.5 136.5zM110 349q0 -63 22 -118.5t60.5 -96.5t91.5 -65t116 -24
q62 0 115 24t92 65t61 96.5t22 118.5t-22 119t-61 97.5t-92 65.5t-115 24q-63 0 -116 -24t-91.5 -65.5t-60.5 -97.5t-22 -119zM399 861l-86 -78q-6 -6 -17 -6t-19.5 7.5t-8.5 17.5q0 6 3 11.5t6 7.5l98 90q5 4 10.5 7t13.5 3q9 0 15 -3.5t10 -6.5l98 -90q3 -2 6 -7.5
t3 -11.5q0 -10 -8.5 -17.5t-19.5 -7.5t-17 6z" />
    <glyph glyph-name="Otilde" unicode="&#xd5;" horiz-adv-x="800" 
d="M50 349q0 72 27.5 137t74.5 113.5t111 77t137 28.5q72 0 136 -28.5t111.5 -77t75 -113.5t27.5 -137t-27.5 -136.5t-75 -112.5t-111.5 -76.5t-136 -28.5q-73 0 -137 28.5t-111 76.5t-74.5 112.5t-27.5 136.5zM110 349q0 -63 22 -118.5t60.5 -96.5t91.5 -65t116 -24
q62 0 115 24t92 65t61 96.5t22 118.5t-22 119t-61 97.5t-92 65.5t-115 24q-63 0 -116 -24t-91.5 -65.5t-60.5 -97.5t-22 -119zM340 905q22 0 40 -9t33 -19.5t28 -19t25 -8.5q17 0 24.5 8.5t12 19t10 19.5t18.5 9q11 0 19.5 -8t8.5 -20q0 -11 -5.5 -25t-17.5 -26t-30 -20.5
t-43 -8.5q-22 0 -40 8.5t-33 19t-28 19.5t-25 9q-17 0 -24.5 -9t-12 -19.5t-10 -19t-18.5 -8.5q-11 0 -19.5 8t-8.5 20q0 11 5.5 25t17.5 26t30 20.5t43 8.5z" />
    <glyph glyph-name="Odieresis" unicode="&#xd6;" horiz-adv-x="800" 
d="M50 349q0 72 27.5 137t74.5 113.5t111 77t137 28.5q72 0 136 -28.5t111.5 -77t75 -113.5t27.5 -137t-27.5 -136.5t-75 -112.5t-111.5 -76.5t-136 -28.5q-73 0 -137 28.5t-111 76.5t-74.5 112.5t-27.5 136.5zM110 349q0 -63 22 -118.5t60.5 -96.5t91.5 -65t116 -24
q62 0 115 24t92 65t61 96.5t22 118.5t-22 119t-61 97.5t-92 65.5t-115 24q-63 0 -116 -24t-91.5 -65.5t-60.5 -97.5t-22 -119zM270 859q0 20 14 33t33 13q20 0 33.5 -13t13.5 -33t-13.5 -33.5t-33.5 -13.5q-19 0 -33 13.5t-14 33.5zM436 859q0 20 14 33t33 13q20 0 33.5 -13
t13.5 -33t-13.5 -33.5t-33.5 -13.5q-19 0 -33 13.5t-14 33.5z" />
    <glyph glyph-name="multiply" unicode="&#xd7;" horiz-adv-x="506" 
d="M253 286l150 150q7 7 17 7q11 0 18.5 -7t7.5 -18t-7 -18l-150 -150l146 -145q11 -11 11 -21t-7 -17.5t-19 -7.5q-10 0 -19 9l-148 148l-149 -149q-8 -8 -20 -8q-9 0 -16.5 7t-7.5 18t8 19l149 148l-150 149q-7 7 -7 18q0 12 8 18.5t17 6.5q11 0 18 -7z" />
    <glyph glyph-name="Oslash" unicode="&#xd8;" horiz-adv-x="800" 
d="M50 349q0 72 27.5 137t74.5 113.5t111 77t137 28.5q49 0 94.5 -13.5t84.5 -38.5l28 40q7 12 23 12q8 0 14.5 -7t6.5 -15t-2.5 -12.5t-5.5 -9.5l-25 -35q60 -50 96 -122t36 -155q0 -72 -27.5 -136.5t-75 -112.5t-111.5 -76.5t-136 -28.5q-51 0 -97 13.5t-86 39.5l-28 -40
q-10 -13 -24 -13q-9 0 -15.5 6.5t-6.5 14.5q0 7 2.5 12t5.5 10l26 38q-59 49 -93 120t-34 153zM690 349q0 71 -26.5 131.5t-74.5 102.5l-343 -494q33 -21 71.5 -32.5t82.5 -11.5q62 0 115 24t92 65t61 96.5t22 118.5zM110 349q0 -69 25.5 -129t71.5 -102l343 494
q-32 20 -70 31.5t-80 11.5q-63 0 -116 -24t-91.5 -65.5t-60.5 -97.5t-22 -119z" />
    <glyph glyph-name="Ugrave" unicode="&#xd9;" horiz-adv-x="740" 
d="M75 675q0 12 9 21t22 9q12 0 20.5 -9t8.5 -21v-376q0 -61 20 -108.5t53 -79.5t75 -49t87 -17t87 16.5t75 49t53 79.5t20 109v377q0 11 8.5 20t20.5 9q13 0 22 -9t9 -20v-370q0 -72 -24 -129.5t-64.5 -98t-94 -62t-112.5 -21.5t-112 21.5t-94 62t-65 98t-24 128.5v370z
M267 878q-4 4 -7 8.5t-3 11.5q0 11 8.5 19t19.5 8q3 0 7.5 -1t9.5 -5l107 -98q3 -2 6 -7.5t3 -11.5q0 -11 -8.5 -19t-19.5 -8t-17 6z" />
    <glyph glyph-name="Uacute" unicode="&#xda;" horiz-adv-x="740" 
d="M75 675q0 12 9 21t22 9q12 0 20.5 -9t8.5 -21v-376q0 -61 20 -108.5t53 -79.5t75 -49t87 -17t87 16.5t75 49t53 79.5t20 109v377q0 11 8.5 20t20.5 9q13 0 22 -9t9 -20v-370q0 -72 -24 -129.5t-64.5 -98t-94 -62t-112.5 -21.5t-112 21.5t-94 62t-65 98t-24 128.5v370z
M362 781q-6 -6 -17 -6t-19.5 8t-8.5 19q0 6 3 11.5t6 7.5l107 98q5 4 9.5 5t7.5 1q11 0 19.5 -8t8.5 -19q0 -7 -3 -11.5t-7 -8.5z" />
    <glyph glyph-name="Ucircumflex" unicode="&#xdb;" horiz-adv-x="740" 
d="M75 675q0 12 9 21t22 9q12 0 20.5 -9t8.5 -21v-376q0 -61 20 -108.5t53 -79.5t75 -49t87 -17t87 16.5t75 49t53 79.5t20 109v377q0 11 8.5 20t20.5 9q13 0 22 -9t9 -20v-370q0 -72 -24 -129.5t-64.5 -98t-94 -62t-112.5 -21.5t-112 21.5t-94 62t-65 98t-24 128.5v370z
M369 861l-86 -78q-6 -6 -17 -6t-19.5 7.5t-8.5 17.5q0 6 3 11.5t6 7.5l98 90q5 4 10.5 7t13.5 3q9 0 15 -3.5t10 -6.5l98 -90q3 -2 6 -7.5t3 -11.5q0 -10 -8.5 -17.5t-19.5 -7.5t-17 6z" />
    <glyph glyph-name="Udieresis" unicode="&#xdc;" horiz-adv-x="740" 
d="M75 675q0 12 9 21t22 9q12 0 20.5 -9t8.5 -21v-376q0 -61 20 -108.5t53 -79.5t75 -49t87 -17t87 16.5t75 49t53 79.5t20 109v377q0 11 8.5 20t20.5 9q13 0 22 -9t9 -20v-370q0 -72 -24 -129.5t-64.5 -98t-94 -62t-112.5 -21.5t-112 21.5t-94 62t-65 98t-24 128.5v370z
M240 859q0 20 14 33t33 13q20 0 33.5 -13t13.5 -33t-13.5 -33.5t-33.5 -13.5q-19 0 -33 13.5t-14 33.5zM406 859q0 20 14 33t33 13q20 0 33.5 -13t13.5 -33t-13.5 -33.5t-33.5 -13.5q-19 0 -33 13.5t-14 33.5z" />
    <glyph glyph-name="Yacute" unicode="&#xdd;" horiz-adv-x="637" 
d="M606 698q11 -8 11 -23q0 -9 -7 -19l-261 -360v-270q0 -13 -8.5 -22t-22.5 -9q-12 0 -21 9t-9 22v270l-262 361q-6 9 -6 18q0 12 8 21t21 9q8 0 14.5 -4t10.5 -9l245 -338l245 340q8 11 23 11q9 0 19 -7zM316 781q-6 -6 -17 -6t-19.5 8t-8.5 19q0 6 3 11.5t6 7.5l107 98
q5 4 9.5 5t7.5 1q11 0 19.5 -8t8.5 -19q0 -7 -3 -11.5t-7 -8.5z" />
    <glyph glyph-name="Thorn" unicode="&#xde;" horiz-adv-x="590" 
d="M80 675q0 12 9 21t21 9q13 0 21.5 -9t8.5 -21v-66h192q46 0 86.5 -17.5t71 -47.5t48 -71t17.5 -87t-17.5 -86.5t-48 -71t-71 -48t-86.5 -17.5h-192v-137q0 -12 -8.5 -21.5t-21.5 -9.5t-21.5 9.5t-8.5 21.5v649zM140 214h185q37 0 69 13.5t54.5 37t35.5 54.5t13 67t-13 67
t-35.5 54.5t-54.5 37t-69 13.5h-185v-344z" />
    <glyph glyph-name="germandbls" unicode="&#xdf;" horiz-adv-x="606" 
d="M375 50q60 0 91 31t31 73q0 33 -15.5 54.5t-38.5 38.5t-49.5 31t-49.5 33t-38.5 44.5t-15.5 64.5q0 30 13 53.5t34.5 40t49 25.5t56.5 11q0 32 -12 59.5t-33 47.5t-48.5 31.5t-58.5 11.5q-32 0 -59 -12t-47 -33.5t-31 -52t-11 -66.5v-514q0 -11 -9.5 -19t-20.5 -8
t-20.5 8t-9.5 19v428h-29q-10 0 -17 7.5t-7 17.5t7 17.5t17 7.5h29v28q0 49 16.5 90t45 70.5t66.5 45.5t81 16q46 0 84 -17.5t65 -45.5t42 -62.5t15 -68.5q0 -22 -10 -37t-36 -17q-18 -1 -37 -6t-34 -15t-25 -26t-10 -38q0 -26 15.5 -44t39 -33.5t50.5 -30.5t50.5 -35
t39 -48t15.5 -68q0 -71 -49 -114.5t-132 -43.5h-103q-13 0 -21.5 6.5t-8.5 17.5t8.5 18.5t21.5 7.5h103z" />
    <glyph glyph-name="agrave" unicode="&#xe0;" horiz-adv-x="613" 
d="M543 26q0 -13 -8 -22t-21 -9t-21 9t-8 22v67q-9 -15 -25.5 -32t-40.5 -31.5t-55.5 -24.5t-71.5 -10q-53 0 -98 20t-78 54.5t-52 81t-19 100.5t19.5 100t53 80.5t78.5 54t96 19.5q40 0 72 -9.5t56 -24t40 -31.5t25 -32v67q0 12 8 21t21 9t21 -9t8 -21v-449zM294 42
q42 0 77 15.5t60.5 43t39.5 66t14 84.5t-14.5 84t-40.5 65t-61 42t-75 15q-41 0 -75.5 -16.5t-60.5 -44.5t-40.5 -65.5t-14.5 -79.5t14 -80t39.5 -66.5t60.5 -45.5t77 -17zM206 678q-4 4 -7 8.5t-3 11.5q0 11 8.5 19t19.5 8q3 0 7.5 -1t9.5 -5l107 -98q3 -2 6 -7.5t3 -11.5
q0 -11 -8.5 -19t-19.5 -8t-17 6z" />
    <glyph glyph-name="aacute" unicode="&#xe1;" horiz-adv-x="613" 
d="M543 26q0 -13 -8 -22t-21 -9t-21 9t-8 22v67q-9 -15 -25.5 -32t-40.5 -31.5t-55.5 -24.5t-71.5 -10q-53 0 -98 20t-78 54.5t-52 81t-19 100.5t19.5 100t53 80.5t78.5 54t96 19.5q40 0 72 -9.5t56 -24t40 -31.5t25 -32v67q0 12 8 21t21 9t21 -9t8 -21v-449zM294 42
q42 0 77 15.5t60.5 43t39.5 66t14 84.5t-14.5 84t-40.5 65t-61 42t-75 15q-41 0 -75.5 -16.5t-60.5 -44.5t-40.5 -65.5t-14.5 -79.5t14 -80t39.5 -66.5t60.5 -45.5t77 -17zM300 581q-6 -6 -17 -6t-19.5 8t-8.5 19q0 6 3 11.5t6 7.5l107 98q5 4 9.5 5t7.5 1q11 0 19.5 -8
t8.5 -19q0 -7 -3 -11.5t-7 -8.5z" />
    <glyph glyph-name="acircumflex" unicode="&#xe2;" horiz-adv-x="613" 
d="M543 26q0 -13 -8 -22t-21 -9t-21 9t-8 22v67q-9 -15 -25.5 -32t-40.5 -31.5t-55.5 -24.5t-71.5 -10q-53 0 -98 20t-78 54.5t-52 81t-19 100.5t19.5 100t53 80.5t78.5 54t96 19.5q40 0 72 -9.5t56 -24t40 -31.5t25 -32v67q0 12 8 21t21 9t21 -9t8 -21v-449zM294 42
q42 0 77 15.5t60.5 43t39.5 66t14 84.5t-14.5 84t-40.5 65t-61 42t-75 15q-41 0 -75.5 -16.5t-60.5 -44.5t-40.5 -65.5t-14.5 -79.5t14 -80t39.5 -66.5t60.5 -45.5t77 -17zM307 661l-86 -78q-6 -6 -17 -6t-19.5 7.5t-8.5 17.5q0 6 3 11.5t6 7.5l98 90q5 4 10.5 7t13.5 3
q9 0 15 -3.5t10 -6.5l98 -90q3 -2 6 -7.5t3 -11.5q0 -10 -8.5 -17.5t-19.5 -7.5t-17 6z" />
    <glyph glyph-name="atilde" unicode="&#xe3;" horiz-adv-x="613" 
d="M543 26q0 -13 -8 -22t-21 -9t-21 9t-8 22v67q-9 -15 -25.5 -32t-40.5 -31.5t-55.5 -24.5t-71.5 -10q-53 0 -98 20t-78 54.5t-52 81t-19 100.5t19.5 100t53 80.5t78.5 54t96 19.5q40 0 72 -9.5t56 -24t40 -31.5t25 -32v67q0 12 8 21t21 9t21 -9t8 -21v-449zM294 42
q42 0 77 15.5t60.5 43t39.5 66t14 84.5t-14.5 84t-40.5 65t-61 42t-75 15q-41 0 -75.5 -16.5t-60.5 -44.5t-40.5 -65.5t-14.5 -79.5t14 -80t39.5 -66.5t60.5 -45.5t77 -17zM247 705q22 0 40 -9t33 -19.5t28 -19t25 -8.5q17 0 24.5 8.5t12 19t10 19.5t18.5 9q11 0 19.5 -8
t8.5 -20q0 -11 -5.5 -25t-17.5 -26t-30 -20.5t-43 -8.5q-22 0 -40 8.5t-33 19t-28 19.5t-25 9q-17 0 -24.5 -9t-12 -19.5t-10 -19t-18.5 -8.5q-11 0 -19.5 8t-8.5 20q0 11 5.5 25t17.5 26t30 20.5t43 8.5z" />
    <glyph glyph-name="adieresis" unicode="&#xe4;" horiz-adv-x="613" 
d="M543 26q0 -13 -8 -22t-21 -9t-21 9t-8 22v67q-9 -15 -25.5 -32t-40.5 -31.5t-55.5 -24.5t-71.5 -10q-53 0 -98 20t-78 54.5t-52 81t-19 100.5t19.5 100t53 80.5t78.5 54t96 19.5q40 0 72 -9.5t56 -24t40 -31.5t25 -32v67q0 12 8 21t21 9t21 -9t8 -21v-449zM294 42
q42 0 77 15.5t60.5 43t39.5 66t14 84.5t-14.5 84t-40.5 65t-61 42t-75 15q-41 0 -75.5 -16.5t-60.5 -44.5t-40.5 -65.5t-14.5 -79.5t14 -80t39.5 -66.5t60.5 -45.5t77 -17zM177 659q0 20 14 33t33 13q20 0 33.5 -13t13.5 -33t-13.5 -33.5t-33.5 -13.5q-19 0 -33 13.5
t-14 33.5zM343 659q0 20 14 33t33 13q20 0 33.5 -13t13.5 -33t-13.5 -33.5t-33.5 -13.5q-19 0 -33 13.5t-14 33.5z" />
    <glyph glyph-name="aring" unicode="&#xe5;" horiz-adv-x="613" 
d="M543 26q0 -13 -8 -22t-21 -9t-21 9t-8 22v67q-9 -15 -25.5 -32t-40.5 -31.5t-55.5 -24.5t-71.5 -10q-53 0 -98 20t-78 54.5t-52 81t-19 100.5t19.5 100t53 80.5t78.5 54t96 19.5q40 0 72 -9.5t56 -24t40 -31.5t25 -32v67q0 12 8 21t21 9t21 -9t8 -21v-449zM294 42
q42 0 77 15.5t60.5 43t39.5 66t14 84.5t-14.5 84t-40.5 65t-61 42t-75 15q-41 0 -75.5 -16.5t-60.5 -44.5t-40.5 -65.5t-14.5 -79.5t14 -80t39.5 -66.5t60.5 -45.5t77 -17zM208 644q0 20 8 38t21.5 31.5t31.5 21.5t38 8t38 -8t31.5 -21.5t21.5 -31.5t8 -38t-8 -37.5
t-21.5 -31t-31.5 -21.5t-38 -8t-38 8t-31.5 21.5t-21.5 31t-8 37.5zM252 644q0 -23 16 -39t39 -16t39 16t16 39t-16 39t-39 16t-39 -16t-16 -39z" />
    <glyph glyph-name="ae" unicode="&#xe6;" horiz-adv-x="961" 
d="M523 225q2 -38 15.5 -71t36 -58t54 -39t70.5 -14q53 0 84.5 15t47.5 26q7 5 17 5t17 -7t7 -17q0 -9 -4.5 -14.5t-8.5 -8.5q-7 -5 -19.5 -13t-32 -15.5t-46.5 -13t-62 -5.5q-60 0 -106 26.5t-70 62.5v-58q0 -13 -8 -22t-21 -9t-21 9t-8 22v60q-29 -38 -75.5 -64.5
t-105.5 -26.5q-53 0 -96.5 20t-75.5 54.5t-49.5 81t-17.5 100.5t18 100t50 80.5t76 54t95 19.5q29 0 56 -7.5t50.5 -20t42.5 -29.5t32 -35v62q0 12 8.5 21t21.5 9t20.5 -9t7.5 -21v-63q12 18 30 35t41 29.5t50 20.5t56 8q52 0 94 -20t71.5 -52t45 -74t15.5 -85
q0 -17 -12.5 -33t-35.5 -16h-355zM465 251q0 44 -13 81.5t-36.5 65.5t-57 43.5t-74.5 15.5t-74.5 -16.5t-57.5 -44.5t-37.5 -65.5t-13.5 -79.5t13 -80t37 -66.5t57.5 -45.5t75.5 -17q40 0 73 15.5t56.5 42.5t36.5 63.5t15 78.5v9zM700 457q-39 0 -71 -14.5t-55 -39.5
t-36 -58.5t-15 -71.5h352q-3 38 -16 71.5t-35 58.5t-53 39.5t-71 14.5z" />
    <glyph glyph-name="ccedilla" unicode="&#xe7;" horiz-adv-x="493" 
d="M305 457q-43 0 -80 -16t-64 -44t-42.5 -65.5t-15.5 -80.5t15.5 -81t42.5 -66t64 -44.5t80 -16.5q38 0 66 14t42 23l9 4.5t10 2.5q11 0 18.5 -7.5t7.5 -18.5q0 -8 -5 -14.5t-11 -10.5q-17 -12 -53 -26.5t-84 -14.5q-54 0 -101.5 19t-83 53t-55.5 81t-20 103q0 55 20 101.5
t55.5 80.5t83 53t101.5 19q48 0 78 -12t46 -21q7 -4 13.5 -10.5t6.5 -16.5q0 -11 -7.5 -18.5t-18.5 -7.5q-9 0 -19 7q-20 13 -46.5 22t-52.5 9zM264 -67q0 12 7.5 18.5t19.5 6.5h9q20 0 37.5 -7.5t30.5 -20.5t20.5 -30.5t7.5 -36.5q0 -17 -6.5 -32.5t-18 -26.5t-26 -17.5
t-30.5 -6.5h-88q-11 0 -18 6.5t-7 17.5q0 13 7 20t18 7h73q16 0 26.5 13t10.5 28q0 16 -11.5 26.5t-25.5 10.5h-10q-11 0 -18.5 6.5t-7.5 17.5z" />
    <glyph glyph-name="egrave" unicode="&#xe8;" horiz-adv-x="575" 
d="M104 225q3 -38 19 -71t41.5 -58t59 -39t72.5 -14q57 0 91 13.5t59 27.5q3 2 7 3.5t9 1.5q10 0 17 -7t7 -17q0 -9 -4.5 -14.5t-8.5 -7.5q-8 -5 -23 -13.5t-36.5 -16t-51 -13t-66.5 -5.5q-56 0 -102 20t-79 54.5t-51.5 81t-18.5 100.5t19.5 100t53.5 80.5t80 54t99 19.5
q52 0 97 -20t77 -52t50.5 -74t18.5 -85q0 -17 -12.5 -33t-35.5 -16h-388zM297 457q-39 0 -73 -14.5t-59.5 -39.5t-41.5 -58.5t-19 -71.5h383q-3 38 -18 71.5t-40 58.5t-58.5 39.5t-73.5 14.5zM190 678q-4 4 -7 8.5t-3 11.5q0 11 8.5 19t19.5 8q3 0 7.5 -1t9.5 -5l107 -98
q3 -2 6 -7.5t3 -11.5q0 -11 -8.5 -19t-19.5 -8t-17 6z" />
    <glyph glyph-name="eacute" unicode="&#xe9;" horiz-adv-x="575" 
d="M104 225q3 -38 19 -71t41.5 -58t59 -39t72.5 -14q57 0 91 13.5t59 27.5q3 2 7 3.5t9 1.5q10 0 17 -7t7 -17q0 -9 -4.5 -14.5t-8.5 -7.5q-8 -5 -23 -13.5t-36.5 -16t-51 -13t-66.5 -5.5q-56 0 -102 20t-79 54.5t-51.5 81t-18.5 100.5t19.5 100t53.5 80.5t80 54t99 19.5
q52 0 97 -20t77 -52t50.5 -74t18.5 -85q0 -17 -12.5 -33t-35.5 -16h-388zM297 457q-39 0 -73 -14.5t-59.5 -39.5t-41.5 -58.5t-19 -71.5h383q-3 38 -18 71.5t-40 58.5t-58.5 39.5t-73.5 14.5zM282 581q-6 -6 -17 -6t-19.5 8t-8.5 19q0 6 3 11.5t6 7.5l107 98q5 4 9.5 5
t7.5 1q11 0 19.5 -8t8.5 -19q0 -7 -3 -11.5t-7 -8.5z" />
    <glyph glyph-name="ecircumflex" unicode="&#xea;" horiz-adv-x="575" 
d="M104 225q3 -38 19 -71t41.5 -58t59 -39t72.5 -14q57 0 91 13.5t59 27.5q3 2 7 3.5t9 1.5q10 0 17 -7t7 -17q0 -9 -4.5 -14.5t-8.5 -7.5q-8 -5 -23 -13.5t-36.5 -16t-51 -13t-66.5 -5.5q-56 0 -102 20t-79 54.5t-51.5 81t-18.5 100.5t19.5 100t53.5 80.5t80 54t99 19.5
q52 0 97 -20t77 -52t50.5 -74t18.5 -85q0 -17 -12.5 -33t-35.5 -16h-388zM297 457q-39 0 -73 -14.5t-59.5 -39.5t-41.5 -58.5t-19 -71.5h383q-3 38 -18 71.5t-40 58.5t-58.5 39.5t-73.5 14.5zM287 661l-86 -78q-6 -6 -17 -6t-19.5 7.5t-8.5 17.5q0 6 3 11.5t6 7.5l98 90
q5 4 10.5 7t13.5 3q9 0 15 -3.5t10 -6.5l98 -90q3 -2 6 -7.5t3 -11.5q0 -10 -8.5 -17.5t-19.5 -7.5t-17 6z" />
    <glyph glyph-name="edieresis" unicode="&#xeb;" horiz-adv-x="575" 
d="M104 225q3 -38 19 -71t41.5 -58t59 -39t72.5 -14q57 0 91 13.5t59 27.5q3 2 7 3.5t9 1.5q10 0 17 -7t7 -17q0 -9 -4.5 -14.5t-8.5 -7.5q-8 -5 -23 -13.5t-36.5 -16t-51 -13t-66.5 -5.5q-56 0 -102 20t-79 54.5t-51.5 81t-18.5 100.5t19.5 100t53.5 80.5t80 54t99 19.5
q52 0 97 -20t77 -52t50.5 -74t18.5 -85q0 -17 -12.5 -33t-35.5 -16h-388zM297 457q-39 0 -73 -14.5t-59.5 -39.5t-41.5 -58.5t-19 -71.5h383q-3 38 -18 71.5t-40 58.5t-58.5 39.5t-73.5 14.5zM157 659q0 20 14 33t33 13q20 0 33.5 -13t13.5 -33t-13.5 -33.5t-33.5 -13.5
q-19 0 -33 13.5t-14 33.5zM323 659q0 20 14 33t33 13q20 0 33.5 -13t13.5 -33t-13.5 -33.5t-33.5 -13.5q-19 0 -33 13.5t-14 33.5z" />
    <glyph glyph-name="igrave" unicode="&#xec;" horiz-adv-x="204" 
d="M131 26q0 -13 -8 -22t-21 -9t-21 9t-8 22v449q0 12 8 21t21 9t21 -9t8 -21v-449zM-5 678q-4 4 -7 8.5t-3 11.5q0 11 8.5 19t19.5 8q3 0 7.5 -1t9.5 -5l107 -98q3 -2 6 -7.5t3 -11.5q0 -11 -8.5 -19t-19.5 -8t-17 6z" />
    <glyph glyph-name="iacute" unicode="&#xed;" horiz-adv-x="204" 
d="M103 581q-6 -6 -17 -6t-19.5 8t-8.5 19q0 6 3 11.5t6 7.5l107 98q5 4 9.5 5t7.5 1q11 0 19.5 -8t8.5 -19q0 -7 -3 -11.5t-7 -8.5zM131 26q0 -13 -8 -22t-21 -9t-21 9t-8 22v449q0 12 8 21t21 9t21 -9t8 -21v-449z" />
    <glyph glyph-name="icircumflex" unicode="&#xee;" horiz-adv-x="204" 
d="M102 661l-86 -78q-6 -6 -17 -6t-19.5 7.5t-8.5 17.5q0 6 3 11.5t6 7.5l98 90q5 4 10.5 7t13.5 3q9 0 15 -3.5t10 -6.5l98 -90q3 -2 6 -7.5t3 -11.5q0 -10 -8.5 -17.5t-19.5 -7.5t-17 6zM131 26q0 -13 -8 -22t-21 -9t-21 9t-8 22v449q0 12 8 21t21 9t21 -9t8 -21v-449z
" />
    <glyph glyph-name="idieresis" unicode="&#xef;" horiz-adv-x="204" 
d="M-28 659q0 20 14 33t33 13q20 0 33.5 -13t13.5 -33t-13.5 -33.5t-33.5 -13.5q-19 0 -33 13.5t-14 33.5zM138 659q0 20 14 33t33 13q20 0 33.5 -13t13.5 -33t-13.5 -33.5t-33.5 -13.5q-19 0 -33 13.5t-14 33.5zM131 26q0 -13 -8 -22t-21 -9t-21 9t-8 22v449q0 12 8 21
t21 9t21 -9t8 -21v-449z" />
    <glyph glyph-name="eth" unicode="&#xf0;" horiz-adv-x="548" 
d="M278 743q27 -20 55 -50t51 -65l79 36q6 2 9 2q9 0 17.5 -7t8.5 -20q0 -7 -4.5 -13.5t-10.5 -9.5l-74 -33q20 -35 35.5 -75.5t25.5 -83.5t15 -86t5 -83q0 -66 -19 -115t-50.5 -81.5t-71.5 -48t-83 -15.5q-47 0 -87.5 17.5t-70 48t-46.5 71t-17 86.5t17 86t46.5 70t70 47.5
t87.5 17.5q40 0 78.5 -13.5t70.5 -47.5q-8 50 -22.5 92.5t-38.5 87.5l-78 -35q-6 -3 -13 -3q-8 0 -16.5 6.5t-8.5 18.5q0 19 16 25l72 32q-18 26 -40.5 50.5t-46.5 47.5q-5 5 -8 11t-3 15q0 8 7.5 16t18.5 8q5 0 12 -1.5t12 -5.5zM427 218q0 36 -12 66.5t-33.5 53t-51 35
t-64.5 12.5q-36 0 -65.5 -12.5t-51.5 -35t-34 -53t-12 -66.5q0 -35 12 -66t34 -54t51.5 -36.5t65.5 -13.5q35 0 64.5 13.5t51 36.5t33.5 54t12 66z" />
    <glyph glyph-name="ntilde" unicode="&#xf1;" 
d="M487 256q0 46 -15.5 83.5t-41 63t-59 39.5t-69.5 14t-69.5 -14t-59 -39.5t-40.5 -63t-15 -83.5v-230q0 -13 -8.5 -22t-20.5 -9q-13 0 -21 9t-8 22v224q0 57 19 104t51.5 80.5t76.5 52t95 18.5t95 -18.5t77 -52t52 -80.5t19 -104v-224q0 -13 -8.5 -22t-21.5 -9
q-12 0 -20 9t-8 22v230zM242 705q22 0 40 -9t33 -19.5t28 -19t25 -8.5q17 0 24.5 8.5t12 19t10 19.5t18.5 9q11 0 19.5 -8t8.5 -20q0 -11 -5.5 -25t-17.5 -26t-30 -20.5t-43 -8.5q-22 0 -40 8.5t-33 19t-28 19.5t-25 9q-17 0 -24.5 -9t-12 -19.5t-10 -19t-18.5 -8.5
q-11 0 -19.5 8t-8.5 20q0 11 5.5 25t17.5 26t30 20.5t43 8.5z" />
    <glyph glyph-name="ograve" unicode="&#xf2;" 
d="M560 251q0 -53 -20 -99.5t-55 -81t-82 -55t-101 -20.5q-55 0 -102 20t-81.5 54.5t-54 81t-19.5 100.5t20 100t55 80.5t81.5 54t100.5 19.5t101 -19.5t82 -54t55 -81t20 -99.5zM502 251q0 42 -15 79.5t-42 65.5t-63.5 44.5t-79.5 16.5q-42 0 -78.5 -16.5t-63.5 -44.5
t-42 -65.5t-15 -79.5t15 -80t41 -66.5t62.5 -45.5t80.5 -17q43 0 80 17t63.5 45.5t41.5 66.5t15 80zM207 678q-4 4 -7 8.5t-3 11.5q0 11 8.5 19t19.5 8q3 0 7.5 -1t9.5 -5l107 -98q3 -2 6 -7.5t3 -11.5q0 -11 -8.5 -19t-19.5 -8t-17 6z" />
    <glyph glyph-name="oacute" unicode="&#xf3;" 
d="M560 251q0 -53 -20 -99.5t-55 -81t-82 -55t-101 -20.5q-55 0 -102 20t-81.5 54.5t-54 81t-19.5 100.5t20 100t55 80.5t81.5 54t100.5 19.5t101 -19.5t82 -54t55 -81t20 -99.5zM502 251q0 42 -15 79.5t-42 65.5t-63.5 44.5t-79.5 16.5q-42 0 -78.5 -16.5t-63.5 -44.5
t-42 -65.5t-15 -79.5t15 -80t41 -66.5t62.5 -45.5t80.5 -17q43 0 80 17t63.5 45.5t41.5 66.5t15 80zM294 581q-6 -6 -17 -6t-19.5 8t-8.5 19q0 6 3 11.5t6 7.5l107 98q5 4 9.5 5t7.5 1q11 0 19.5 -8t8.5 -19q0 -7 -3 -11.5t-7 -8.5z" />
    <glyph glyph-name="ocircumflex" unicode="&#xf4;" 
d="M560 251q0 -53 -20 -99.5t-55 -81t-82 -55t-101 -20.5q-55 0 -102 20t-81.5 54.5t-54 81t-19.5 100.5t20 100t55 80.5t81.5 54t100.5 19.5t101 -19.5t82 -54t55 -81t20 -99.5zM502 251q0 42 -15 79.5t-42 65.5t-63.5 44.5t-79.5 16.5q-42 0 -78.5 -16.5t-63.5 -44.5
t-42 -65.5t-15 -79.5t15 -80t41 -66.5t62.5 -45.5t80.5 -17q43 0 80 17t63.5 45.5t41.5 66.5t15 80zM302 661l-86 -78q-6 -6 -17 -6t-19.5 7.5t-8.5 17.5q0 6 3 11.5t6 7.5l98 90q5 4 10.5 7t13.5 3q9 0 15 -3.5t10 -6.5l98 -90q3 -2 6 -7.5t3 -11.5q0 -10 -8.5 -17.5
t-19.5 -7.5t-17 6z" />
    <glyph glyph-name="otilde" unicode="&#xf5;" 
d="M560 251q0 -53 -20 -99.5t-55 -81t-82 -55t-101 -20.5q-55 0 -102 20t-81.5 54.5t-54 81t-19.5 100.5t20 100t55 80.5t81.5 54t100.5 19.5t101 -19.5t82 -54t55 -81t20 -99.5zM502 251q0 42 -15 79.5t-42 65.5t-63.5 44.5t-79.5 16.5q-42 0 -78.5 -16.5t-63.5 -44.5
t-42 -65.5t-15 -79.5t15 -80t41 -66.5t62.5 -45.5t80.5 -17q43 0 80 17t63.5 45.5t41.5 66.5t15 80zM242 705q22 0 40 -9t33 -19.5t28 -19t25 -8.5q17 0 24.5 8.5t12 19t10 19.5t18.5 9q11 0 19.5 -8t8.5 -20q0 -11 -5.5 -25t-17.5 -26t-30 -20.5t-43 -8.5q-22 0 -40 8.5
t-33 19t-28 19.5t-25 9q-17 0 -24.5 -9t-12 -19.5t-10 -19t-18.5 -8.5q-11 0 -19.5 8t-8.5 20q0 11 5.5 25t17.5 26t30 20.5t43 8.5z" />
    <glyph glyph-name="odieresis" unicode="&#xf6;" 
d="M560 251q0 -53 -20 -99.5t-55 -81t-82 -55t-101 -20.5q-55 0 -102 20t-81.5 54.5t-54 81t-19.5 100.5t20 100t55 80.5t81.5 54t100.5 19.5t101 -19.5t82 -54t55 -81t20 -99.5zM502 251q0 42 -15 79.5t-42 65.5t-63.5 44.5t-79.5 16.5q-42 0 -78.5 -16.5t-63.5 -44.5
t-42 -65.5t-15 -79.5t15 -80t41 -66.5t62.5 -45.5t80.5 -17q43 0 80 17t63.5 45.5t41.5 66.5t15 80zM172 659q0 20 14 33t33 13q20 0 33.5 -13t13.5 -33t-13.5 -33.5t-33.5 -13.5q-19 0 -33 13.5t-14 33.5zM338 659q0 20 14 33t33 13q20 0 33.5 -13t13.5 -33t-13.5 -33.5
t-33.5 -13.5q-19 0 -33 13.5t-14 33.5z" />
    <glyph glyph-name="divide" unicode="&#xf7;" horiz-adv-x="562" 
d="M234 77q0 20 13.5 33.5t33.5 13.5t33.5 -13.5t13.5 -33.5t-13.5 -33.5t-33.5 -13.5t-33.5 13.5t-13.5 33.5zM234 425q0 20 13.5 33.5t33.5 13.5t33.5 -13.5t13.5 -33.5t-13.5 -33.5t-33.5 -13.5t-33.5 13.5t-13.5 33.5zM86 226q-11 0 -18.5 7t-7.5 18q0 10 7.5 17.5
t18.5 7.5h392q10 0 17 -7.5t7 -17.5q0 -11 -7 -18t-17 -7h-392z" />
    <glyph glyph-name="oslash" unicode="&#xf8;" 
d="M560 251q0 -53 -20 -99.5t-55 -81t-82 -55t-101 -20.5q-71 0 -127 32l-13 -19q-10 -13 -23 -13q-8 0 -14.5 6t-6.5 14q0 7 2.5 12t5.5 10l11 16q-43 35 -67.5 86t-24.5 112q0 54 20 100t55 80.5t81.5 54t100.5 19.5q35 0 66.5 -8.5t59.5 -23.5l15 21q7 12 22 12
q8 0 14.5 -6.5t6.5 -14.5t-3 -12.5t-6 -9.5l-11 -16q43 -35 68.5 -85.5t25.5 -110.5zM503 251q0 46 -17 85.5t-49 68.5l-234 -337q44 -26 99 -26q43 0 80 17t64 45.5t42 66.5t15 80zM102 251q0 -46 16 -86.5t48 -69.5l234 337q-45 25 -98 25q-42 0 -78.5 -16.5t-63.5 -44.5
t-42.5 -65.5t-15.5 -79.5z" />
    <glyph glyph-name="ugrave" unicode="&#xf9;" 
d="M487 474q0 13 8 22t20 9q13 0 21.5 -9t8.5 -22v-224q0 -57 -19 -104t-52 -80.5t-77 -52t-95 -18.5t-95 18.5t-76.5 52t-51.5 80.5t-19 104v224q0 13 8 22t21 9q12 0 20.5 -9t8.5 -22v-230q0 -47 15 -84t40.5 -62.5t59 -39.5t69.5 -14t69.5 14t59 39.5t41 62.5t15.5 84
v230zM207 678q-4 4 -7 8.5t-3 11.5q0 11 8.5 19t19.5 8q3 0 7.5 -1t9.5 -5l107 -98q3 -2 6 -7.5t3 -11.5q0 -11 -8.5 -19t-19.5 -8t-17 6z" />
    <glyph glyph-name="uacute" unicode="&#xfa;" 
d="M487 474q0 13 8 22t20 9q13 0 21.5 -9t8.5 -22v-224q0 -57 -19 -104t-52 -80.5t-77 -52t-95 -18.5t-95 18.5t-76.5 52t-51.5 80.5t-19 104v224q0 13 8 22t21 9q12 0 20.5 -9t8.5 -22v-230q0 -47 15 -84t40.5 -62.5t59 -39.5t69.5 -14t69.5 14t59 39.5t41 62.5t15.5 84
v230zM293 581q-6 -6 -17 -6t-19.5 8t-8.5 19q0 6 3 11.5t6 7.5l107 98q5 4 9.5 5t7.5 1q11 0 19.5 -8t8.5 -19q0 -7 -3 -11.5t-7 -8.5z" />
    <glyph glyph-name="ucircumflex" unicode="&#xfb;" 
d="M487 474q0 13 8 22t20 9q13 0 21.5 -9t8.5 -22v-224q0 -57 -19 -104t-52 -80.5t-77 -52t-95 -18.5t-95 18.5t-76.5 52t-51.5 80.5t-19 104v224q0 13 8 22t21 9q12 0 20.5 -9t8.5 -22v-230q0 -47 15 -84t40.5 -62.5t59 -39.5t69.5 -14t69.5 14t59 39.5t41 62.5t15.5 84
v230zM302 661l-86 -78q-6 -6 -17 -6t-19.5 7.5t-8.5 17.5q0 6 3 11.5t6 7.5l98 90q5 4 10.5 7t13.5 3q9 0 15 -3.5t10 -6.5l98 -90q3 -2 6 -7.5t3 -11.5q0 -10 -8.5 -17.5t-19.5 -7.5t-17 6z" />
    <glyph glyph-name="udieresis" unicode="&#xfc;" 
d="M487 474q0 13 8 22t20 9q13 0 21.5 -9t8.5 -22v-224q0 -57 -19 -104t-52 -80.5t-77 -52t-95 -18.5t-95 18.5t-76.5 52t-51.5 80.5t-19 104v224q0 13 8 22t21 9q12 0 20.5 -9t8.5 -22v-230q0 -47 15 -84t40.5 -62.5t59 -39.5t69.5 -14t69.5 14t59 39.5t41 62.5t15.5 84
v230zM172 659q0 20 14 33t33 13q20 0 33.5 -13t13.5 -33t-13.5 -33.5t-33.5 -13.5q-19 0 -33 13.5t-14 33.5zM338 659q0 20 14 33t33 13q20 0 33.5 -13t13.5 -33t-13.5 -33.5t-33.5 -13.5q-19 0 -33 13.5t-14 33.5z" />
    <glyph glyph-name="yacute" unicode="&#xfd;" horiz-adv-x="498" 
d="M221 -205q-8 -20 -29 -20q-12 0 -19 9t-7 20q0 5 0.5 7.5t1.5 5.5l79 201q-28 0 -38.5 9.5t-14.5 19.5l-177 418q-2 6 -2 11q0 13 8 21t23 8q17 0 26 -22l185 -439l167 441q8 20 26 20q13 0 21.5 -7t8.5 -21q0 -4 -1 -8t-2 -6zM246 581q-6 -6 -17 -6t-19.5 8t-8.5 19
q0 6 3 11.5t6 7.5l107 98q5 4 9.5 5t7.5 1q11 0 19.5 -8t8.5 -19q0 -7 -3 -11.5t-7 -8.5z" />
    <glyph glyph-name="thorn" unicode="&#xfe;" horiz-adv-x="615" 
d="M70 674q0 13 8.5 22t21.5 9t21.5 -9t8.5 -22v-262q33 43 83.5 68t109.5 25q52 0 97.5 -20t78.5 -54.5t52 -81t19 -100.5t-19.5 -100t-53 -80.5t-78.5 -54t-96 -19.5q-59 0 -109.5 24.5t-83.5 67.5v-287q0 -12 -8.5 -21t-21.5 -9t-21.5 9t-8.5 21v874zM130 249
q0 -44 14.5 -81.5t40.5 -65.5t61.5 -43.5t76.5 -15.5q40 0 75.5 16.5t62 44.5t41.5 65.5t15 79.5t-14.5 80t-40.5 66.5t-61.5 45.5t-77.5 17q-41 0 -76 -15.5t-61 -42.5t-41 -63.5t-15 -78.5v-9z" />
    <glyph glyph-name="ydieresis" unicode="&#xff;" horiz-adv-x="498" 
d="M221 -205q-8 -20 -29 -20q-12 0 -19 9t-7 20q0 5 0.5 7.5t1.5 5.5l79 201q-28 0 -38.5 9.5t-14.5 19.5l-177 418q-2 6 -2 11q0 13 8 21t23 8q17 0 26 -22l185 -439l167 441q8 20 26 20q13 0 21.5 -7t8.5 -21q0 -4 -1 -8t-2 -6zM119 659q0 20 14 33t33 13q20 0 33.5 -13
t13.5 -33t-13.5 -33.5t-33.5 -13.5q-19 0 -33 13.5t-14 33.5zM285 659q0 20 14 33t33 13q20 0 33.5 -13t13.5 -33t-13.5 -33.5t-33.5 -13.5q-19 0 -33 13.5t-14 33.5z" />
    <glyph glyph-name="OE" unicode="&#x152;" horiz-adv-x="1187" 
d="M1110 52q12 0 19.5 -7.5t7.5 -18.5q0 -10 -7.5 -18t-19.5 -8h-400q-12 0 -20.5 8.5t-8.5 21.5v124q-22 -36 -52.5 -65t-67 -50t-79 -32.5t-87.5 -11.5q-73 0 -136 28.5t-109.5 76.5t-73 112.5t-26.5 136.5t26.5 137t73 113.5t109.5 77t136 28.5q45 0 87.5 -11.5t79 -32.5
t67 -50.5t52.5 -65.5v127q0 12 8.5 20t20.5 8h400q12 0 19.5 -8t7.5 -18q0 -11 -7.5 -18.5t-19.5 -7.5h-369v-260h309q11 0 18 -7.5t7 -17.5q0 -11 -7 -19t-18 -8h-309v-284h369zM110 349q0 -63 21 -118.5t59 -96.5t90 -65t115 -24q62 0 114.5 24t90.5 65t59.5 96.5
t21.5 118.5v12q-2 61 -24.5 114.5t-60.5 93.5t-89.5 63t-111.5 23q-63 0 -115 -24t-90 -65.5t-59 -97.5t-21 -119z" />
    <glyph glyph-name="oe" unicode="&#x153;" horiz-adv-x="989" 
d="M535 225q3 -38 18 -71t39 -58t56.5 -39t71.5 -14q28 0 49 4t37 10t29 13t25 14q3 2 7 3.5t9 1.5q10 0 17 -7t7 -17q0 -9 -4.5 -14.5t-8.5 -7.5q-8 -6 -21.5 -14t-33.5 -15.5t-47.5 -13t-64.5 -5.5q-78 0 -132.5 37t-82.5 98q-29 -60 -84 -97.5t-130 -37.5q-55 0 -100 20
t-77.5 54.5t-50.5 81t-18 100.5t18.5 100t51 80.5t77.5 54t99 19.5q75 0 130.5 -37t84.5 -98q29 61 85 98t130 37q52 0 95 -20t74 -52t47.5 -74t16.5 -85q0 -17 -12.5 -33t-35.5 -16h-371zM479 259q-2 41 -15.5 77t-38 63t-58.5 42.5t-76 15.5t-77.5 -16.5t-61 -44.5
t-39.5 -65.5t-14 -79.5t13.5 -80t39 -66.5t60.5 -45.5t79 -17q43 0 78 17t59.5 45.5t37.5 66.5t13 80v8zM721 457q-39 0 -72 -14.5t-57.5 -39.5t-39 -58.5t-17.5 -71.5h370q-4 38 -18.5 71.5t-37.5 58.5t-55.5 39.5t-72.5 14.5z" />
    <glyph glyph-name="Scaron" unicode="&#x160;" horiz-adv-x="549" 
d="M272 45q36 0 66.5 11.5t53.5 31t36 45t13 54.5q0 48 -28.5 75.5t-71 45.5t-92 32.5t-92 36t-71 56t-28.5 92.5q0 37 16.5 69.5t45 57t66 39t80.5 14.5q49 0 87.5 -14.5t64.5 -34t40 -38t14 -27.5q0 -14 -9 -21.5t-20 -7.5q-12 0 -18 6.5t-12 14.5q-24 29 -59.5 50.5
t-84.5 21.5q-36 0 -64 -10.5t-47.5 -28t-29.5 -40t-10 -47.5q0 -47 28.5 -73t71 -43.5t92 -32t92 -36t71 -57t28.5 -94.5q0 -44 -19.5 -80.5t-51.5 -62.5t-73.5 -40.5t-86.5 -14.5q-53 0 -93.5 16t-69 38t-43 43t-14.5 32q0 13 8 20.5t18 7.5q14 0 21.5 -8t12.5 -15
q11 -15 26.5 -30t35.5 -27t45 -19.5t55 -7.5zM359 914q6 6 17 6t19 -7.5t8 -17.5q0 -13 -8 -19l-96 -88q-4 -3 -10 -6.5t-15 -3.5q-8 0 -13.5 3t-10.5 7l-96 88q-8 6 -8 19q0 10 8 17.5t19 7.5t17 -6l84 -77z" />
    <glyph glyph-name="scaron" unicode="&#x161;" horiz-adv-x="476" 
d="M241 43q29 0 54 7t43 19.5t28.5 28.5t10.5 34q0 34 -24 53t-59.5 30.5t-77 20.5t-77 23.5t-59.5 39.5t-24 69q0 27 13 51.5t37 43.5t57 30.5t74 11.5q32 0 58 -6t46.5 -15t35 -19t22.5 -17q6 -6 10.5 -11.5t4.5 -13.5q0 -9 -6 -17.5t-20 -8.5q-8 0 -13 3.5t-14 10.5
q-20 16 -50 30.5t-75 14.5q-30 0 -53 -7.5t-38.5 -19.5t-24 -27t-8.5 -30q0 -32 24 -49t60 -28.5t78 -20.5t78 -24t60 -41t24 -70q0 -33 -16 -59.5t-43 -45.5t-62.5 -29t-74.5 -10q-36 0 -65 6.5t-51 16.5t-38 22.5t-28 24.5q-5 6 -6.5 11.5t-1.5 10.5q0 9 7 16.5t18 7.5
q8 0 14.5 -4.5t10.5 -7.5q25 -24 59 -40t82 -16zM322 714q6 6 17 6t19 -7.5t8 -17.5q0 -13 -8 -19l-96 -88q-4 -3 -10 -6.5t-15 -3.5q-8 0 -13.5 3t-10.5 7l-96 88q-8 6 -8 19q0 10 8 17.5t19 7.5t17 -6l84 -77z" />
    <glyph glyph-name="Ydieresis" unicode="&#x178;" horiz-adv-x="637" 
d="M606 698q11 -8 11 -23q0 -9 -7 -19l-261 -360v-270q0 -13 -8.5 -22t-22.5 -9q-12 0 -21 9t-9 22v270l-262 361q-6 9 -6 18q0 12 8 21t21 9q8 0 14.5 -4t10.5 -9l245 -338l245 340q8 11 23 11q9 0 19 -7zM188 859q0 20 14 33t33 13q20 0 33.5 -13t13.5 -33t-13.5 -33.5
t-33.5 -13.5q-19 0 -33 13.5t-14 33.5zM354 859q0 20 14 33t33 13q20 0 33.5 -13t13.5 -33t-13.5 -33.5t-33.5 -13.5q-19 0 -33 13.5t-14 33.5z" />
    <glyph glyph-name="Zcaron" unicode="&#x17d;" horiz-adv-x="651" 
d="M90 648q-11 0 -18.5 7.5t-7.5 18.5t7.5 18.5t18.5 7.5h461q17 0 28 -11t11 -27q0 -17 -11 -30l-460 -580h456q11 0 18.5 -7.5t7.5 -18.5t-7.5 -18.5t-18.5 -7.5h-487q-14 0 -26 11t-12 28q0 9 3 16.5t8 13.5l460 579h-431zM410 914q6 6 17 6t19 -7.5t8 -17.5
q0 -13 -8 -19l-96 -88q-4 -3 -10 -6.5t-15 -3.5q-8 0 -13.5 3t-10.5 7l-96 88q-8 6 -8 19q0 10 8 17.5t19 7.5t17 -6l84 -77z" />
    <glyph glyph-name="zcaron" unicode="&#x17e;" horiz-adv-x="474" 
d="M74 451q-11 0 -19 7t-8 18t8 17.5t19 6.5h314q17 0 28 -11t11 -25q0 -23 -17 -44l-308 -371h304q12 0 20 -7.5t8 -18.5q0 -10 -8 -16.5t-20 -6.5h-329q-15 0 -26 11t-11 27q0 10 4.5 22t16.5 27l302 364h-289zM321 714q6 6 17 6t19 -7.5t8 -17.5q0 -13 -8 -19l-96 -88
q-4 -3 -10 -6.5t-15 -3.5q-8 0 -13.5 3t-10.5 7l-96 88q-8 6 -8 19q0 10 8 17.5t19 7.5t17 -6l84 -77z" />
    <glyph glyph-name="florin" unicode="&#x192;" horiz-adv-x="469" 
d="M72 -169q32 0 42 19.5t13 41.5l63 452h-104q-11 0 -18.5 7.5t-7.5 18.5q0 10 7.5 17t18.5 7h111l37 223q3 15 11 30t20.5 26.5t29 19t36.5 7.5h56q9 0 16.5 -7t7.5 -18t-7.5 -18t-16.5 -7h-33q-30 0 -45.5 -17.5t-19.5 -42.5l-31 -196h135q11 0 18.5 -7t7.5 -17
q0 -11 -7.5 -18.5t-18.5 -7.5h-142l-68 -481q-5 -31 -30 -57t-66 -26h-37q-11 0 -18 7.5t-7 18.5q0 9 7 17t18 8h22z" />
    <glyph glyph-name="circumflex" unicode="&#x2c6;" horiz-adv-x="263" 
d="M131 661l-86 -78q-6 -6 -17 -6t-19.5 7.5t-8.5 17.5q0 6 3 11.5t6 7.5l98 90q5 4 10.5 7t13.5 3q9 0 15 -3.5t10 -6.5l98 -90q3 -2 6 -7.5t3 -11.5q0 -10 -8.5 -17.5t-19.5 -7.5t-17 6z" />
    <glyph glyph-name="tilde" unicode="&#x2dc;" horiz-adv-x="315" 
d="M96 705q22 0 40 -9t33 -19.5t28 -19t25 -8.5q17 0 24.5 8.5t12 19t10 19.5t18.5 9q11 0 19.5 -8t8.5 -20q0 -11 -5.5 -25t-17.5 -26t-30 -20.5t-43 -8.5q-22 0 -40 8.5t-33 19t-28 19.5t-25 9q-17 0 -24.5 -9t-12 -19.5t-10 -19t-18.5 -8.5q-11 0 -19.5 8t-8.5 20
q0 11 5.5 25t17.5 26t30 20.5t43 8.5z" />
    <glyph glyph-name="endash" unicode="&#x2013;" horiz-adv-x="491" 
d="M26 227q-11 0 -18.5 7t-7.5 18q0 10 7.5 17.5t18.5 7.5h441q10 0 17 -7.5t7 -17.5q0 -11 -7 -18t-17 -7h-441z" />
    <glyph glyph-name="emdash" unicode="&#x2014;" horiz-adv-x="980" 
d="M26 227q-11 0 -18.5 7t-7.5 18q0 10 7.5 17.5t18.5 7.5h930q10 0 17 -7.5t7 -17.5q0 -11 -7 -18t-17 -7h-930z" />
    <glyph glyph-name="quoteleft" unicode="&#x2018;" horiz-adv-x="181" 
d="M114 513q0 -20 -14 -33.5t-34 -13.5q-8 0 -18 3.5t-18.5 12.5t-14 26t-5.5 44q0 33 10.5 61.5t25.5 48.5t31.5 31.5t28.5 11.5q11 0 18 -6.5t7 -15.5q0 -14 -18 -25q-26 -16 -36.5 -41t-10.5 -54q25 -3 36.5 -18t11.5 -32z" />
    <glyph glyph-name="quoteright" unicode="&#x2019;" horiz-adv-x="181" 
d="M67 658q0 20 14 33.5t34 13.5q8 0 18 -3.5t18.5 -12.5t14 -26t5.5 -44q0 -33 -10.5 -61.5t-25.5 -48.5t-31.5 -31.5t-28.5 -11.5q-11 0 -18 6.5t-7 15.5q0 14 18 25q26 16 36.5 41t10.5 54q-25 3 -36.5 18t-11.5 32z" />
    <glyph glyph-name="quotesinglbase" unicode="&#x201a;" horiz-adv-x="224" 
d="M60 42q0 20 14 33.5t34 13.5q8 0 18 -3.5t18.5 -12.5t14 -26t5.5 -44q0 -33 -10.5 -61.5t-25.5 -48.5t-31.5 -31.5t-28.5 -11.5q-11 0 -18 6.5t-7 15.5q0 14 18 25q26 16 36.5 41t10.5 54q-25 3 -36.5 18t-11.5 32z" />
    <glyph glyph-name="quotedblleft" unicode="&#x201c;" horiz-adv-x="337" 
d="M270 513q0 -20 -14 -33.5t-34 -13.5q-8 0 -18 3.5t-18.5 12.5t-14 26t-5.5 44q0 33 10.5 61.5t25.5 48.5t31.5 31.5t28.5 11.5q11 0 18 -6.5t7 -15.5q0 -14 -18 -25q-26 -16 -36.5 -41t-10.5 -54q25 -3 36.5 -18t11.5 -32zM114 513q0 -20 -14 -33.5t-34 -13.5
q-8 0 -18 3.5t-18.5 12.5t-14 26t-5.5 44q0 33 10.5 61.5t25.5 48.5t31.5 31.5t28.5 11.5q11 0 18 -6.5t7 -15.5q0 -14 -18 -25q-26 -16 -36.5 -41t-10.5 -54q25 -3 36.5 -18t11.5 -32z" />
    <glyph glyph-name="quotedblright" unicode="&#x201d;" horiz-adv-x="337" 
d="M67 658q0 20 14 33.5t34 13.5q8 0 18 -3.5t18.5 -12.5t14 -26t5.5 -44q0 -33 -10.5 -61.5t-25.5 -48.5t-31.5 -31.5t-28.5 -11.5q-11 0 -18 6.5t-7 15.5q0 14 18 25q26 16 36.5 41t10.5 54q-25 3 -36.5 18t-11.5 32zM223 658q0 20 14 33.5t34 13.5q8 0 18 -3.5
t18.5 -12.5t14 -26t5.5 -44q0 -33 -10.5 -61.5t-25.5 -48.5t-31.5 -31.5t-28.5 -11.5q-11 0 -18 6.5t-7 15.5q0 14 18 25q26 16 36.5 41t10.5 54q-25 3 -36.5 18t-11.5 32z" />
    <glyph glyph-name="quotedblbase" unicode="&#x201e;" horiz-adv-x="380" 
d="M60 42q0 20 14 33.5t34 13.5q8 0 18 -3.5t18.5 -12.5t14 -26t5.5 -44q0 -33 -10.5 -61.5t-25.5 -48.5t-31.5 -31.5t-28.5 -11.5q-11 0 -18 6.5t-7 15.5q0 14 18 25q26 16 36.5 41t10.5 54q-25 3 -36.5 18t-11.5 32zM216 42q0 20 14 33.5t34 13.5q8 0 18 -3.5t18.5 -12.5
t14 -26t5.5 -44q0 -33 -10.5 -61.5t-25.5 -48.5t-31.5 -31.5t-28.5 -11.5q-11 0 -18 6.5t-7 15.5q0 14 18 25q26 16 36.5 41t10.5 54q-25 3 -36.5 18t-11.5 32z" />
    <glyph glyph-name="dagger" unicode="&#x2020;" horiz-adv-x="565" 
d="M312 387v-583q0 -11 -9 -20t-21 -9t-20.5 9t-8.5 20v583h-169q-10 0 -17 7t-7 17t7 17.5t17 7.5h169v240q0 12 8.5 20.5t20.5 8.5t21 -8.5t9 -20.5v-240h170q10 0 16.5 -7.5t6.5 -17.5t-6.5 -17t-16.5 -7h-170z" />
    <glyph glyph-name="daggerdbl" unicode="&#x2021;" horiz-adv-x="565" 
d="M312 44v-240q0 -11 -9 -20t-21 -9t-20.5 9t-8.5 20v240h-169q-10 0 -17 7t-7 17t7 17.5t17 7.5h169v294h-169q-10 0 -17 7t-7 17t7 17.5t17 7.5h169v240q0 12 8.5 20.5t20.5 8.5t21 -8.5t9 -20.5v-240h170q10 0 16.5 -7.5t6.5 -17.5t-6.5 -17t-16.5 -7h-170v-294h170
q10 0 16.5 -7.5t6.5 -17.5t-6.5 -17t-16.5 -7h-170z" />
    <glyph glyph-name="bullet" unicode="&#x2022;" horiz-adv-x="445" 
d="M375 353q0 -32 -12.5 -60t-33.5 -49t-49 -33t-59 -12q-33 0 -60.5 12t-47.5 33t-31.5 49t-11.5 60q0 30 11.5 57t31.5 48t47.5 33.5t60.5 12.5q31 0 59 -12t49 -33t33.5 -48.5t12.5 -57.5z" />
    <glyph glyph-name="ellipsis" unicode="&#x2026;" horiz-adv-x="639" 
d="M60 42q0 20 13 33.5t33 13.5t33.5 -13.5t13.5 -33.5t-13.5 -33.5t-33.5 -13.5t-33 13.5t-13 33.5zM273 42q0 20 13 33.5t33 13.5t33.5 -13.5t13.5 -33.5t-13.5 -33.5t-33.5 -13.5t-33 13.5t-13 33.5zM486 42q0 20 13 33.5t33 13.5t33.5 -13.5t13.5 -33.5t-13.5 -33.5
t-33.5 -13.5t-33 13.5t-13 33.5z" />
    <glyph glyph-name="perthousand" unicode="&#x2030;" horiz-adv-x="1040" 
d="M539 692q8 13 23 13q9 0 15.5 -7t6.5 -16q0 -6 -3 -11t-5 -9l-407 -653q-9 -14 -23 -14q-9 0 -16 6.5t-7 15.5q0 6 3 11t5 9zM371 133q0 29 11 54.5t29.5 44t44 29.5t54.5 11q28 0 53.5 -11t44 -29.5t29.5 -44t11 -54.5t-11 -54t-29.5 -43.5t-44 -29.5t-53.5 -11
q-29 0 -54.5 11t-44 29.5t-29.5 43.5t-11 54zM412 133q0 -20 7.5 -37.5t21 -31t31.5 -21t38 -7.5t37.5 7.5t31 21t21 31t7.5 37.5t-7.5 38t-21 31.5t-31 21t-37.5 7.5q-41 0 -69.5 -28.5t-28.5 -69.5zM60 567q0 29 11 54t29.5 44t43.5 29.5t54 10.5t54.5 -10.5t44 -29.5
t29.5 -44t11 -54t-11 -54t-29.5 -44t-44 -29.5t-54.5 -10.5t-54 10.5t-43.5 29.5t-29.5 44t-11 54zM101 567q0 -20 7.5 -38t21 -31.5t31 -21t37.5 -7.5q41 0 69.5 28.5t28.5 69.5t-28.5 69.5t-69.5 28.5q-20 0 -37.5 -7.5t-31 -21t-21 -31.5t-7.5 -38zM703 133q0 29 11 54.5
t29.5 44t44 29.5t54.5 11q28 0 53.5 -11t44 -29.5t29.5 -44t11 -54.5t-11 -54t-29.5 -43.5t-44 -29.5t-53.5 -11q-29 0 -54.5 11t-44 29.5t-29.5 43.5t-11 54zM744 133q0 -20 7.5 -37.5t21 -31t31.5 -21t38 -7.5t37.5 7.5t31 21t21 31t7.5 37.5t-7.5 38t-21 31.5t-31 21
t-37.5 7.5q-41 0 -69.5 -28.5t-28.5 -69.5z" />
    <glyph glyph-name="guilsinglleft" unicode="&#x2039;" horiz-adv-x="270" 
d="M205 125q5 -6 5 -15q0 -11 -7.5 -17t-16.5 -6q-13 0 -21 11l-98 135q-3 4 -5 10t-2 10q0 5 1.5 10.5t5.5 10.5l97 134q9 11 21 11q9 0 16.5 -6.5t7.5 -17.5q0 -8 -5 -14l-95 -128z" />
    <glyph glyph-name="guilsinglright" unicode="&#x203a;" horiz-adv-x="270" 
d="M161 253l-95 128q-5 6 -5 14q0 11 7.5 17.5t16.5 6.5q12 0 21 -11l97 -134q4 -5 5.5 -10.5t1.5 -10.5q0 -4 -2 -10t-5 -10l-98 -135q-8 -11 -21 -11q-9 0 -16.5 6t-7.5 17q0 9 5 15z" />
    <glyph glyph-name="Euro" unicode="&#x20ac;" horiz-adv-x="653" 
d="M202 250q13 -43 39 -80.5t61.5 -65t78.5 -43.5t90 -16q23 0 38.5 2.5t26 5.5t17.5 5.5t14 2.5q11 0 18.5 -6t7.5 -18q0 -11 -7 -17t-12 -8q-8 -4 -36 -10.5t-66 -6.5q-59 0 -112 20t-96.5 55t-75 81t-46.5 99h-88q-10 0 -17 7t-7 17t7 17t17 7h78q-4 23 -4 52
q0 13 1 26.5t3 27.5h-76q-10 0 -17 7t-7 17t7 17t17 7h87q15 55 47 101t75.5 80t96 53t108.5 19q33 0 59 -5.5t34 -9.5q5 -2 12 -8t7 -18q0 -11 -8.5 -17t-19.5 -6t-28 7t-54 7q-47 0 -90.5 -15.5t-79 -43t-61.5 -64.5t-38 -80h241q10 0 16.5 -7t6.5 -17t-6.5 -17t-16.5 -7
h-253q-2 -14 -3 -27t-1 -27q0 -13 1 -26t3 -26h210q10 0 16.5 -7t6.5 -17t-6.5 -17t-16.5 -7h-199z" />
    <glyph glyph-name="trademark" unicode="&#x2122;" horiz-adv-x="772" 
d="M285 700q8 0 15 -6.5t7 -15.5q0 -10 -7 -16t-15 -6h-90v-320q0 -10 -8 -18t-19 -8t-18.5 8t-7.5 18v320h-89q-10 0 -16.5 6t-6.5 16q0 9 6.5 15.5t16.5 6.5h232zM702 336q0 -10 -8 -18t-19 -8t-18.5 8t-7.5 18v284l-92 -125q-5 -7 -13 -12t-16 -5q-9 0 -17 5t-13 12
l-92 125v-284q0 -10 -7.5 -18t-18.5 -8t-19 8t-8 18v341q0 10 8.5 19t20.5 9q11 0 18.5 -5.5t11.5 -11.5l115 -165l116 165q4 6 12 11.5t19 5.5t19.5 -9t8.5 -19v-341z" />
    </font>
</defs>
</svg>
